<svg width="250" height="42" viewBox="0 0 250 42" fill="none" xmlns="http://www.w3.org/2000/svg">
<path d="M40.7 18.4C40.1 17.9 39.4 17.6 38.7 17.6H38.5H38.3H27.5C26.6 17.6 25.9 17.9 25.2 18.5C24.6 19.2 24.3 19.9 24.3 20.8C24.3 21.7 24.6 22.4 25.2 23.1C25.8 23.7 26.6 24 27.5 24H33.1H35.3L34.5 26C33.4 28.7 31.7 31 29.2 32.7C26.7 34.4 23.9 35.3 20.9 35.3C16.9 35.3 13.4 33.9 10.6 31C7.8 28.2 6.4 24.7 6.4 20.8C6.4 16.8 7.8 13.3 10.7 10.5C13.5 7.7 17 6.3 20.9 6.3C24.7 6.3 27.9 7.6 30.6 10.1C31.1 10.6 31.4 10.8 31.5 10.9C32.1 11.3 32.7 11.5 33.4 11.5C34.3 11.5 35 11.2 35.7 10.6C36.3 9.9 36.6 9.2 36.6 8.3C36.6 7.6 36.4 7 36.1 6.5L35.1 5.5C31 1.8 26.3 0 20.9 0C15.1 0 10.3 2 6.1 6.1C2 10.3 0 15.1 0 21C0 26.8 2 31.7 6.1 35.8C10.2 39.9 15.1 41.9 20.9 41.9C26.6 41.9 31.3 40 35.4 36.1C39.5 32.2 41.6 27.5 41.7 21.9V21.1V20.3C41.6 19.4 41.2 18.9 40.7 18.4Z" fill="white"/>
<path d="M133.2 0.399976C132.8 0.199976 132.3 0.0999756 131.9 0.0999756C131.2 0.0999756 130.6 0.299976 130 0.699976C129.4 1.09998 129.1 1.49998 128.8 2.19998L118.8 25.9L117.4 29.2L116 25.9L106 2.19998C105.7 1.59998 105.3 1.09998 104.7 0.799976C104.1 0.399976 103.5 0.299976 102.8 0.299976C102.3 0.299976 101.9 0.399976 101.5 0.599976H101.4H101.3C100.7 0.799976 100.2 1.19998 99.8 1.79998C99.4 2.39998 99.2 3.09998 99.2 3.79998C99.2 4.29998 99.3 4.69998 99.5 5.09998L113.5 38.1L114.3 39.7V39.8V39.9C114.5 40.5 114.9 40.9 115.4 41.3C116 41.7 116.6 41.9 117.3 42C117.7 42 118.1 41.9 118.5 41.7C118.9 41.5 119.2 41.3 119.6 41C119.9 40.7 120.2 40.3 120.4 39.9L121.1 38.2L135 4.89998C135.2 4.49998 135.2 4.09998 135.2 3.59998C135.2 2.89998 135 2.29998 134.6 1.69998C134.3 1.19998 133.8 0.699976 133.2 0.399976Z" fill="white"/>
<path d="M150.3 0.400024C149.3 0.400024 148.6 0.700024 147.9 1.40002C147.2 2.10002 146.9 2.80002 146.9 3.80002V38.4C146.9 39.4 147.2 40.2 147.9 40.8C148.6 41.5 149.4 41.8 150.3 41.8C151.3 41.8 152 41.5 152.7 40.8C153.4 40.1 153.7 39.4 153.7 38.4V3.80002C153.7 2.80002 153.4 2.00002 152.7 1.40002C152 0.700024 151.3 0.400024 150.3 0.400024Z" fill="white"/>
<path d="M201 1.40002C200.3 0.700024 199.6 0.400024 198.6 0.400024H169.2C168.2 0.400024 167.4 0.700024 166.8 1.40002C166.1 2.10002 165.8 2.90002 165.8 3.90002C165.8 4.90002 166.1 5.70002 166.8 6.40002C167.5 7.10002 168.3 7.40002 169.3 7.40002H179H180.5V8.90002V38.5C180.5 39.5 180.8 40.2 181.5 40.9C182.2 41.6 183 41.9 183.9 41.9C184.9 41.9 185.6 41.6 186.3 40.9C187 40.2 187.3 39.4 187.3 38.5V8.80002V7.30002H188.8H198.5C199.5 7.30002 200.3 7.00002 200.9 6.30002C201.6 5.60002 201.9 4.80002 201.9 3.90002C202 2.90002 201.7 2.10002 201 1.40002Z" fill="white"/>
<path d="M80.3 28.2L79.7 27.6L79.9 26.8L80.1 26L80.9 25.7C84.6 24.4 87.1 22.2 88.6 18.9C89.4 17.2 89.8 15.4 89.8 13.5C89.8 11.6 89.4 9.80002 88.7 8.20002C87.7 6.20002 86.4 4.50002 84.6 3.20002C82.8 1.90002 80.8 1.10002 78.7 0.900024H57.2C56.4 0.900024 55.6 1.20002 55 1.70002C54.4 2.20002 54 2.70002 53.9 3.40002V3.50002V3.70002V4.20002V22.7V38.5C53.9 39.5 54.2 40.2 54.9 40.9C55.6 41.6 56.4 41.9 57.3 41.9C58.3 41.9 59 41.6 59.7 40.9C60.2 40.4 60.4 39.9 60.6 39.4V39.3V17.9V9.30002V7.80002H62.1H78.2H78.3H78.4H78.5H78.6H78.7H78.8C80.1 8.20002 81.2 8.90002 82 9.90002C82.9 10.9 83.3 12.2 83.3 13.6C83.3 15.1 82.7 16.5 81.7 17.6C80.7 18.6 79.6 19.3 78.2 19.5H78.1H78H70.1V26.7C70.1 27 70.2 27.2 70.4 27.5L71.2 28.3L84.1 41C84.8 41.7 85.5 42 86.5 42C87.5 42 88.3 41.7 88.9 41C89.5 40.3 89.8 39.5 89.8 38.6C89.8 37.7 89.5 36.8 88.9 36.1L80.3 28.2Z" fill="white"/>
<path d="M248.4 1.29995C247.7 0.799951 247 0.499951 246.2 0.499951C245.1 0.499951 244.3 0.899951 243.6 1.69995L232.9 14.4L231.7 15.8L230.6 14.4L219.7 1.39995C219 0.599951 218.2 0.199951 217.1 0.199951C216.3 0.199951 215.6 0.499951 214.9 0.999951C214 1.69995 213.6 2.59995 213.6 3.59995C213.6 4.39995 213.9 5.09995 214.4 5.79995L226.4 20.1L227.2 21.1L226.4 22.1L214.3 36.4C213.7 37.1 213.5 37.7 213.5 38.5C213.5 39.5999 213.9 40.5 214.8 41.2C215.4 41.7 216.1 42 216.9 42C218 42 218.9 41.6 219.6 40.7L226.3 32.7L230.5 27.7L231.7 26.2999L241.4 14.7L248.7 5.99995C249.2 5.39995 249.5 4.69995 249.5 3.79995C249.6 2.89995 249.2 1.99995 248.4 1.29995Z" fill="white"/>
</svg>
