<?xml version="1.0" encoding="utf-8"?>
<!-- Generator: Adobe Illustrator 26.0.0, SVG Export Plug-In . SVG Version: 6.00 Build 0)  -->
<svg version="1.1" id="Layer_1" xmlns="http://www.w3.org/2000/svg" xmlns:xlink="http://www.w3.org/1999/xlink" x="0px" y="0px"
	 viewBox="0 0 600 285" style="enable-background:new 0 0 600 285;" xml:space="preserve">
<style type="text/css">
	.st0{fill:#1F263F;}
	.st1{fill:#FFFFFF;}
</style>
<g>
	<rect class="st0" width="600" height="285"/>
	<path class="st1" d="M273.35,129.92c-11.1-43.7-45.7-77.7-89.5-88.4c-82.1-19.9-155.7,42.1-155.7,120.9c0,28,9.3,53.9,25,74.8
		c0,0.1,0.1,0.1,0.1,0.2c0.1,0.1,0.1,0.1,0.2,0.2c1,1.2,2.4,1.8,3.8,1.8c1,0,1.9-0.3,2.8-0.9c1.6-1.1,2.3-2.9,2.1-4.7
		c-0.1-0.7-0.4-1.5-0.8-2.1l-2-3c-0.7-0.9-1.3-1.9-2-2.9c-12.1-18.2-19.2-40-19.2-63.5c0-63.6,52-115.3,115.7-114.8
		c63.5,0.5,114.8,53.1,113.9,116.5c-0.4,24.4-21.7,64.98-21.7,64.98H216v-72h11.19c0.6,0,1.31-0.1,1.91-0.4
		c2.11-0.9,3.52-2.79,3.82-5.19c0-0.3,0.1-0.6,0.1-1c0-2.79-1.41-5.88-3.62-7.48l-77.4-56.64l-0.1-0.1c-4.12-2.89-8.24,0.3-9.85,1.6
		c-0.2,0.1-0.3,0.2-0.4,0.3L131,96.57v-1c0-0.3,0-0.5,0-0.8c0-1.99,0.1-4.69-2.01-6.78c-0.9-0.9-2.51-1.99-5.13-1.99H100.3
		c-4.58,0-8.3,3.72-8.3,8.3v29.48l-25.14,18.95l-0.29,0.3c-1.47,1.5-1.96,3.89-1.96,6.09c0,1.7,0.29,3.29,0.69,4.29
		c0.88,2.19,2.85,3.59,5.01,3.59H81v74.7c0,4.01,3.28,7.3,7.3,7.3h80.4c4.01,0,7.3-3.28,7.3-7.3v-56.2c0-4.69-3.81-8.5-8.5-8.5h-34
		c-4.69,0-8.5,3.81-8.5,8.5V217h10v-40h31v52H90v-75.6c0-3.52-2.88-6.4-6.4-6.4h-8.55l23.13-15.8c2.4-1.7,3.82-4.3,3.82-7V96h19
		v9.25c0,1.99,0.9,3.88,2.6,4.87c2,1.29,4.49,1.19,6.39-0.2L147.37,96c0.1-0.1,0.3-0.2,0.4-0.3l69.92,51.3h-5.39l0,0
		c-1.2,0-3.1,0.3-4.59,1.79c-1.4,1.39-1.6,2.98-1.7,4.27c0,0.3,0,1.35,0,1.35v0.8v75.3c-0.45,4.7,3.35,8.5,8.05,8.48h17.1h6.7l0,0
		h9.8l0,0h0.6l0,0c1.8-0.18,3.4-1.08,4.4-2.48C274.15,208.12,283.55,170.02,273.35,129.92z"/>
	<g>
		<g>
			<path class="st1" d="M343.35,115.12c2.1,0.5,3.2,1.5,3.2,3.2c-2.2,4-4.9,7.2-8.1,9.7c-3.2,2.5-6.2,4.1-9,4.9s-5.8,1.2-8.8,1.2
				c-6.8,0-12.6-2.6-17.2-7.8c-4.6-5.2-6.9-12.8-6.9-22.7c0-11.1,2.9-20.6,8.6-28.4c2.8-3.8,6.5-6.8,10.9-9s9.5-3.3,15.4-3.3
				c5.8,0,10.2,1.5,13.3,4.6c3,3.1,4.6,6.7,4.6,10.9s-1.2,7.6-3.5,10.2c-2.3,2.6-5.3,3.9-9,3.9c-1.3,0-2.7-0.2-4.4-0.7
				c1.2-1.5,2.3-3.6,3.2-6.4c0.9-2.8,1.4-5.4,1.4-7.9s-0.6-4.5-1.7-6.1c-1.2-1.6-3-2.3-5.5-2.3c-3.8,0-7.3,1.8-10.3,5.3
				c-3.1,3.5-5.4,7.9-6.9,13c-1.5,5.2-2.3,10.5-2.3,16c0,7.4,1.4,13,4.3,16.8s6.6,5.7,11.1,5.7c2.8,0,5.8-1,8.9-2.9
				C337.65,121.32,340.55,118.62,343.35,115.12z"/>
			<path class="st1" d="M368.45,116.52c0,2.7,0.5,4.9,1.5,6.6s2.4,2.6,4.3,2.6c2.7,0,5.3-1.6,7.8-4.8c2.5-3.2,4.4-7.3,5.9-12.2
				c1.5-5,2.2-9.7,2.2-14.2c0-4.5-0.2-8.1-0.5-10.9c1.7-0.1,3-0.2,3.6-0.2c2.9,0,5.2,0.6,6.7,1.6c1.5,1.1,2.3,3.1,2.3,5.9
				c0,1.1-0.7,5.6-2.1,13.4s-2.1,14.1-2.1,18.8c0,4.7,0.9,8.9,2.7,12.5c-4.3-0.8-7.5-2.4-9.5-4.8c-2-2.5-3-6-3-10.6
				c0-0.8,0.1-2.4,0.3-4.7c-1.6,5.5-4.3,9.9-8.3,13.3c-4,3.4-7.9,5-11.8,5c-3.8,0-6.9-1.4-9.3-4.3c-2.3-2.9-3.5-6.9-3.5-12.2
				c0-5.3,0.9-10.4,2.8-15.3s4.7-9.1,8.5-12.6c3.8-3.4,8-5.2,12.6-5.2c2.7,0,5.4,0.6,8.2,1.9c-5.8,2.1-10.5,6.2-14,12.3
				C370.15,104.62,368.45,110.62,368.45,116.52z"/>
			<path class="st1" d="M432.05,87.92c-1.6,0-3.1,0.5-4.3,1.6c-1.3,1.1-1.9,2.6-1.9,4.6s0.7,3.8,2,5.6c1.4,1.7,3,3.3,5,4.6
				c2,1.3,3.9,2.6,5.9,4s3.7,3,5.2,5s2.3,4.2,2.5,6.6c0,4.2-1.8,7.7-5.4,10.5c-3.6,2.8-8,4.3-13.4,4.3c-5.3,0-9.5-1.1-12.5-3.2
				s-4.6-4.6-4.6-7.4s0.9-5,2.6-6.7s3.8-2.6,6.4-2.6c1.3,0,2.6,0.2,3.7,0.7c-1.9,2-2.8,4.1-2.8,6.2c0,2.2,0.6,4,1.8,5.3
				c1.2,1.3,2.9,2,4.9,2c2.1,0,3.8-0.5,5.3-1.6c1.4-1.1,2.1-2.5,2.1-4.2s-0.5-3.2-1.5-4.6c-1-1.3-2.2-2.5-3.7-3.5s-3.1-2.2-4.8-3.4
				c-1.7-1.3-3.3-2.6-4.8-3.9s-2.7-3-3.7-4.9c-1-2-1.5-4.2-1.5-6.6c0-4.1,1.7-7.5,5.1-10.1s7.6-3.9,12.7-3.9s8.8,1,11.1,3
				c2.3,2,3.5,4.3,3.5,6.9c0,2.6-0.8,4.9-2.5,6.7c-1.6,1.9-3.8,2.8-6.4,2.8c-1.3,0-2.7-0.3-4.3-0.8c1.3-1.1,2.3-2.4,3-3.8
				c0.7-1.4,1-2.8,1-4.2s-0.6-2.6-1.7-3.5C435.05,88.42,433.65,87.92,432.05,87.92z"/>
			<path class="st1" d="M467.15,116.52c0,2.7,0.5,4.9,1.5,6.6s2.4,2.6,4.3,2.6c2.7,0,5.3-1.6,7.8-4.8c2.5-3.2,4.4-7.3,5.9-12.2
				c1.5-5,2.2-9.7,2.2-14.2c0-4.5-0.2-8.1-0.5-10.9c1.7-0.1,3-0.2,3.6-0.2c2.9,0,5.2,0.6,6.7,1.6c1.5,1.1,2.3,3.1,2.3,5.9
				c0,1.1-0.7,5.6-2.1,13.4s-2.1,14.1-2.1,18.8c0,4.7,0.9,8.9,2.7,12.5c-4.3-0.8-7.5-2.4-9.5-4.8c-2-2.5-3-6-3-10.6
				c0-0.8,0.1-2.4,0.3-4.7c-1.6,5.5-4.3,9.9-8.3,13.3c-4,3.4-7.9,5-11.8,5c-3.8,0-6.9-1.4-9.3-4.3c-2.3-2.9-3.5-6.9-3.5-12.2
				c0-5.3,0.9-10.4,2.8-15.3s4.7-9.1,8.5-12.6c3.8-3.4,8-5.2,12.6-5.2c2.7,0,5.4,0.6,8.2,1.9c-5.8,2.1-10.5,6.2-14,12.3
				C468.85,104.62,467.15,110.62,467.15,116.52z"/>
		</g>
		<g>
			<path class="st1" d="M343.35,201.62c2.1,0.5,3.2,1.5,3.2,3.2c-2.2,4-4.9,7.2-8.1,9.7s-6.2,4.1-9,4.9s-5.8,1.2-8.8,1.2
				c-6.8,0-12.6-2.6-17.2-7.8c-4.6-5.2-6.9-12.8-6.9-22.7c0-11.1,2.9-20.6,8.6-28.4c2.8-3.8,6.5-6.8,10.9-9s9.5-3.3,15.4-3.3
				c5.8,0,10.2,1.5,13.3,4.6c3,3.1,4.6,6.7,4.6,10.9c0,4.2-1.2,7.6-3.5,10.2s-5.3,3.9-9,3.9c-1.3,0-2.7-0.2-4.4-0.7
				c1.2-1.5,2.3-3.6,3.2-6.4c0.9-2.8,1.4-5.4,1.4-7.9s-0.6-4.5-1.7-6.1c-1.2-1.6-3-2.3-5.5-2.3c-3.8,0-7.3,1.8-10.3,5.3
				c-3.1,3.5-5.4,7.9-6.9,13c-1.5,5.2-2.3,10.5-2.3,16c0,7.4,1.4,13,4.3,16.8s6.6,5.7,11.1,5.7c2.8,0,5.8-1,8.9-2.9
				C337.65,207.92,340.55,205.22,343.35,201.62z"/>
			<path class="st1" d="M368.45,203.02c0,2.7,0.5,4.9,1.5,6.6s2.4,2.6,4.3,2.6c2.7,0,5.3-1.6,7.8-4.8c2.5-3.2,4.4-7.3,5.9-12.2
				c1.5-5,2.2-9.7,2.2-14.2s-0.2-8.1-0.5-10.9c1.7-0.1,3-0.2,3.6-0.2c2.9,0,5.2,0.6,6.7,1.6c1.5,1.1,2.3,3.1,2.3,5.9
				c0,1.1-0.7,5.6-2.1,13.4s-2.1,14.1-2.1,18.8c0,4.7,0.9,8.9,2.7,12.5c-4.3-0.8-7.5-2.4-9.5-4.8c-2-2.5-3-6-3-10.6
				c0-0.8,0.1-2.4,0.3-4.7c-1.6,5.5-4.3,9.9-8.3,13.3s-7.9,5-11.8,5c-3.8,0-6.9-1.4-9.3-4.3c-2.3-2.9-3.5-6.9-3.5-12.2
				c0-5.3,0.9-10.4,2.8-15.3s4.7-9.1,8.5-12.6c3.8-3.4,8-5.2,12.6-5.2c2.7,0,5.4,0.6,8.2,1.9c-5.8,2.1-10.5,6.2-14,12.3
				C370.15,191.22,368.45,197.22,368.45,203.02z"/>
			<path class="st1" d="M426.25,191.22c2.1-7.5,4.6-13.1,7.5-16.6c2.9-3.6,5.6-5.3,8.2-5.3c2.5,0,4.4,0.9,5.7,2.8
				c1.3,1.9,1.9,4.3,1.9,7.3s-0.9,5.7-2.6,8.2c-1.8,2.5-4.2,3.7-7.2,3.7c-0.8,0-1.8-0.2-2.9-0.7c1.8-2.3,2.7-5,2.7-8.2
				c0-1.9-0.8-2.8-2.3-2.8c-1.1,0-2.3,0.8-3.6,2.3c-1.3,1.5-2.5,3.6-3.6,6.3c-1.2,2.7-2.1,6.1-2.9,10.3c-0.8,4.2-1.2,8.7-1.2,13.4
				c0,0.6,0.1,3,0.4,7.4c-1.9,0.1-3,0.2-3.6,0.2c-3.3,0-5.7-0.6-7.1-1.7c-1.4-1.2-2.2-3.1-2.2-5.7c0-1.2,0.6-5.6,1.8-13.4
				c1.2-7.8,1.8-13.9,1.8-18.5s-0.5-8.8-1.5-12.7c4.2,1.3,7.2,3.2,8.9,5.7c1.7,2.5,2.5,5.3,2.5,8.6
				C427.05,185.12,426.75,188.22,426.25,191.22z"/>
			<path class="st1" d="M467.75,190.02c-1.4,8.2-2.1,15-2.2,20.4c0,5.4,0.3,8.8,1,10.4c-4.5-1.2-7.5-2.9-9.1-5.3
				c-1.6-2.3-2.3-5.8-2.3-10.3c0-2.4,0.5-6.8,1.4-13.2c0.9-6.4,1.4-11.3,1.4-14.8s-0.2-6.2-0.5-8.2c1.3-0.1,2.5-0.2,3.6-0.2
				c3.4,0,5.7,0.6,7,1.7s2,3.1,2,5.8C469.85,177.22,469.15,181.72,467.75,190.02z M471.15,161.22c-1.6,0.2-3,0.3-4.3,0.3
				c-6,0-8.9-2.1-8.9-6.2c0-1.5,0.4-3.6,1.3-6.2c1.6-0.2,3-0.3,4.3-0.3c6,0,8.9,2.1,8.9,6.2
				C472.45,156.52,472.05,158.62,471.15,161.22z"/>
			<path class="st1" d="M514.35,169.32c3.4,0,5.9,1.1,7.3,3.2c1.5,2.1,2.2,5,2.2,8.6s-0.6,8.7-1.7,15.2c-1.1,6.5-1.7,11.3-1.7,14.3
				s0.4,5.1,1.1,6.5c0.8,1.4,2,2.5,3.8,3.5c-0.8,0.1-1.8,0.1-3.2,0.1c-4.9,0-8.3-0.8-10.4-2.3c-2.1-1.5-3.1-4.1-3.1-7.9
				c0-2.1,0.6-6.3,1.7-12.5c1.2-6.2,1.7-10.9,1.7-13.9c0-3.8-1.2-5.7-3.5-5.7c-1.3,0-2.8,0.8-4.5,2.3c-1.7,1.6-3.3,3.7-4.9,6.4
				c-1.6,2.7-2.9,6.1-3.9,10.4c-1,4.2-1.6,8.4-1.6,12.6s0.2,7.3,0.5,9.3c-1.9,0.1-3.1,0.2-3.6,0.2c-3.3,0-5.7-0.6-7.1-1.7
				c-1.4-1.2-2.2-3.1-2.2-5.7c0-1.2,0.6-5.6,1.8-13.4c1.2-7.8,1.8-13.9,1.8-18.5s-0.5-8.8-1.5-12.7c4.2,1.3,7.2,3.2,8.9,5.7
				c1.7,2.5,2.5,5.3,2.5,8.4c0,3.2-0.3,6.8-1,11c1.9-6.5,4.9-12,9-16.5C507.15,171.62,510.95,169.32,514.35,169.32z"/>
			<path class="st1" d="M545.95,203.02c0,2.7,0.5,4.9,1.5,6.6s2.4,2.6,4.3,2.6c2.7,0,5.3-1.6,7.8-4.8c2.5-3.2,4.4-7.3,5.9-12.2
				c1.5-5,2.2-9.7,2.2-14.2s-0.2-8.1-0.5-10.9c1.7-0.1,3-0.2,3.6-0.2c2.9,0,5.2,0.6,6.7,1.6c1.5,1.1,2.3,3.1,2.3,5.9
				c0,1.1-0.7,5.6-2.1,13.4c-1.4,7.8-2.1,14.1-2.1,18.8c0,4.7,0.9,8.9,2.7,12.5c-4.3-0.8-7.5-2.4-9.5-4.8c-2-2.5-3-6-3-10.6
				c0-0.8,0.1-2.4,0.3-4.7c-1.6,5.5-4.3,9.9-8.3,13.3s-7.9,5-11.8,5c-3.8,0-6.9-1.4-9.3-4.3c-2.3-2.9-3.5-6.9-3.5-12.2
				c0-5.3,0.9-10.4,2.8-15.3c1.9-4.9,4.7-9.1,8.5-12.6c3.8-3.4,8-5.2,12.6-5.2c2.7,0,5.4,0.6,8.2,1.9c-5.8,2.1-10.5,6.2-14,12.3
				C547.65,191.22,545.95,197.22,545.95,203.02z"/>
		</g>
	</g>
</g>
</svg>
