<?xml version="1.0" encoding="utf-8"?>
<!-- Generator: Adobe Illustrator 25.3.0, SVG Export Plug-In . SVG Version: 6.00 Build 0)  -->
<svg version="1.1" id="Layer_1" xmlns="http://www.w3.org/2000/svg" xmlns:xlink="http://www.w3.org/1999/xlink" x="0px" y="0px"
	 viewBox="0 0 600 600" style="enable-background:new 0 0 600 600;" xml:space="preserve">
<style type="text/css">
	.st0{fill:#1F263F;stroke:#42210B;stroke-width:14;stroke-miterlimit:10;}
	.st1{fill:#1F263F;stroke:#42210B;stroke-width:14;stroke-linecap:round;stroke-linejoin:round;stroke-miterlimit:10;}
	.st2{fill:none;stroke:#000000;stroke-miterlimit:10;}
	.st3{fill:#42210B;}
	.st4{fill:#1F263F;}
</style>
<path class="st0" d="M166.47,405.94"/>
<path class="st1" d="M158.67,406.87"/>
<path class="st2" d="M134,405.68"/>
<path class="st3" d="M164.06,390.3c0.91,1.37,1.85,2.72,2.81,4.06L164.06,390.3z"/>
<path class="st3" d="M158.35,406.45c0.03,0.05,0.07,0.09,0.1,0.13c-0.06-0.08-0.12-0.17-0.18-0.25L158.35,406.45z"/>
<g>
	<g>
		<path class="st4" d="M131.9,495.87c1.67,0.36,2.5,1.2,2.5,2.5c-1.71,3.11-3.81,5.64-6.29,7.58c-2.48,1.94-4.83,3.22-7.03,3.86
			c-2.21,0.63-4.49,0.95-6.83,0.95c-5.32,0-9.79-2.03-13.39-6.09c-3.61-4.06-5.41-9.97-5.41-17.72c0-8.66,2.23-16.03,6.7-22.12
			c2.21-2.93,5.04-5.27,8.49-7c3.45-1.73,7.44-2.6,11.97-2.6s7.98,1.21,10.35,3.62c2.37,2.41,3.55,5.25,3.55,8.52
			c0,3.27-0.9,5.93-2.71,7.98c-1.8,2.05-4.15,3.08-7.04,3.08c-0.99,0-2.14-0.18-3.45-0.54c0.95-1.17,1.78-2.84,2.5-5
			c0.72-2.17,1.08-4.22,1.08-6.16s-0.45-3.52-1.35-4.74c-0.9-1.22-2.32-1.83-4.26-1.83c-2.98,0-5.66,1.38-8.05,4.13
			c-2.39,2.75-4.17,6.13-5.34,10.15c-1.17,4.01-1.76,8.16-1.76,12.45c0,5.77,1.13,10.15,3.38,13.12c2.25,2.98,5.14,4.46,8.66,4.46
			c2.21,0,4.51-0.74,6.9-2.23C127.46,500.74,129.74,498.62,131.9,495.87z"/>
		<path class="st4" d="M151.45,496.95c0,2.12,0.39,3.85,1.18,5.18c0.79,1.33,1.9,1.99,3.35,1.99c2.12,0,4.14-1.24,6.05-3.72
			c1.92-2.48,3.45-5.66,4.6-9.54c1.15-3.88,1.72-7.57,1.72-11.06s-0.14-6.32-0.41-8.49c1.35-0.09,2.3-0.14,2.84-0.14
			c2.3,0,4.04,0.43,5.21,1.29c1.17,0.86,1.76,2.39,1.76,4.6c0,0.86-0.54,4.34-1.62,10.45s-1.62,11-1.62,14.68
			c0,3.68,0.7,6.93,2.1,9.77c-3.38-0.59-5.86-1.84-7.44-3.75c-1.58-1.92-2.37-4.68-2.37-8.29c0-0.63,0.09-1.85,0.27-3.65
			c-1.22,4.29-3.38,7.74-6.49,10.35c-3.11,2.62-6.17,3.92-9.17,3.92c-3,0-5.41-1.12-7.24-3.35c-1.83-2.23-2.74-5.4-2.74-9.5
			c0-4.1,0.73-8.08,2.2-11.94c1.47-3.86,3.66-7.13,6.6-9.81c2.93-2.68,6.2-4.02,9.81-4.02c2.07,0,4.19,0.5,6.36,1.49
			c-4.56,1.62-8.19,4.81-10.89,9.57C152.81,487.74,151.45,492.4,151.45,496.95z"/>
		<path class="st4" d="M201.04,474.69c-1.26,0-2.39,0.42-3.38,1.25c-0.99,0.83-1.49,2.02-1.49,3.55c0,1.53,0.53,2.98,1.59,4.33
			c1.06,1.35,2.36,2.54,3.89,3.55c1.53,1.01,3.08,2.05,4.63,3.11c1.56,1.06,2.92,2.37,4.09,3.92c1.17,1.56,1.83,3.28,1.96,5.17
			c0,3.25-1.4,5.98-4.19,8.19c-2.8,2.21-6.27,3.31-10.42,3.31c-4.15,0-7.41-0.84-9.78-2.5c-2.37-1.67-3.55-3.59-3.55-5.75
			s0.66-3.91,2-5.24c1.33-1.33,2.99-2,4.97-2c1.04,0,2.01,0.18,2.91,0.54c-1.44,1.53-2.17,3.16-2.17,4.87
			c0,1.71,0.47,3.09,1.42,4.13c0.95,1.04,2.23,1.56,3.86,1.56c1.62,0,2.99-0.42,4.09-1.25c1.1-0.83,1.66-1.92,1.66-3.25
			c0-1.33-0.38-2.51-1.15-3.55c-0.77-1.04-1.73-1.95-2.88-2.74c-1.15-0.79-2.4-1.68-3.75-2.67c-1.35-0.99-2.6-2-3.75-3.01
			c-1.15-1.01-2.11-2.3-2.87-3.86c-0.77-1.56-1.15-3.26-1.15-5.11c0-3.2,1.32-5.83,3.96-7.88c2.64-2.05,5.93-3.08,9.88-3.08
			c3.95,0,6.83,0.77,8.66,2.3c1.83,1.53,2.74,3.33,2.74,5.38c0,2.05-0.64,3.8-1.93,5.24c-1.29,1.44-2.94,2.16-4.97,2.16
			c-0.99,0-2.12-0.2-3.38-0.61c0.99-0.86,1.76-1.84,2.3-2.94c0.54-1.1,0.81-2.2,0.81-3.28s-0.45-1.99-1.35-2.74
			C203.38,475.07,202.3,474.69,201.04,474.69z"/>
		<path class="st4" d="M228.37,496.95c0,2.12,0.39,3.85,1.18,5.18c0.79,1.33,1.9,1.99,3.35,1.99c2.12,0,4.14-1.24,6.05-3.72
			c1.92-2.48,3.45-5.66,4.6-9.54c1.15-3.88,1.72-7.57,1.72-11.06s-0.14-6.32-0.41-8.49c1.35-0.09,2.3-0.14,2.84-0.14
			c2.3,0,4.04,0.43,5.21,1.29c1.17,0.86,1.76,2.39,1.76,4.6c0,0.86-0.54,4.34-1.62,10.45c-1.08,6.11-1.62,11-1.62,14.68
			c0,3.68,0.7,6.93,2.1,9.77c-3.38-0.59-5.86-1.84-7.44-3.75c-1.58-1.92-2.37-4.68-2.37-8.29c0-0.63,0.09-1.85,0.27-3.65
			c-1.22,4.29-3.38,7.74-6.49,10.35c-3.11,2.62-6.17,3.92-9.17,3.92c-3,0-5.41-1.12-7.24-3.35c-1.83-2.23-2.74-5.4-2.74-9.5
			c0-4.1,0.73-8.08,2.2-11.94c1.47-3.86,3.66-7.13,6.6-9.81c2.93-2.68,6.2-4.02,9.81-4.02c2.07,0,4.19,0.5,6.36,1.49
			c-4.56,1.62-8.19,4.81-10.89,9.57C229.72,487.74,228.37,492.4,228.37,496.95z"/>
		<path class="st4" d="M320.57,495.87c1.67,0.36,2.5,1.2,2.5,2.5c-1.71,3.11-3.81,5.64-6.29,7.58c-2.48,1.94-4.83,3.22-7.03,3.86
			c-2.21,0.63-4.49,0.95-6.83,0.95c-5.32,0-9.79-2.03-13.39-6.09c-3.61-4.06-5.41-9.97-5.41-17.72c0-8.66,2.23-16.03,6.7-22.12
			c2.21-2.93,5.04-5.27,8.49-7c3.45-1.73,7.44-2.6,11.97-2.6c4.53,0,7.98,1.21,10.35,3.62c2.37,2.41,3.55,5.25,3.55,8.52
			c0,3.27-0.9,5.93-2.71,7.98c-1.8,2.05-4.15,3.08-7.04,3.08c-0.99,0-2.14-0.18-3.45-0.54c0.95-1.17,1.78-2.84,2.5-5
			c0.72-2.17,1.08-4.22,1.08-6.16s-0.45-3.52-1.35-4.74c-0.9-1.22-2.32-1.83-4.26-1.83c-2.98,0-5.66,1.38-8.05,4.13
			c-2.39,2.75-4.17,6.13-5.34,10.15c-1.17,4.01-1.76,8.16-1.76,12.45c0,5.77,1.13,10.15,3.38,13.12c2.25,2.98,5.14,4.46,8.66,4.46
			c2.21,0,4.51-0.74,6.9-2.23C316.12,500.74,318.4,498.62,320.57,495.87z"/>
		<path class="st4" d="M340.11,496.95c0,2.12,0.39,3.85,1.18,5.18c0.79,1.33,1.9,1.99,3.35,1.99c2.12,0,4.14-1.24,6.05-3.72
			c1.92-2.48,3.45-5.66,4.6-9.54s1.72-7.57,1.72-11.06s-0.14-6.32-0.41-8.49c1.35-0.09,2.3-0.14,2.84-0.14
			c2.3,0,4.03,0.43,5.21,1.29c1.17,0.86,1.76,2.39,1.76,4.6c0,0.86-0.54,4.34-1.62,10.45c-1.08,6.11-1.62,11-1.62,14.68
			c0,3.68,0.7,6.93,2.1,9.77c-3.38-0.59-5.86-1.84-7.44-3.75c-1.58-1.92-2.37-4.68-2.37-8.29c0-0.63,0.09-1.85,0.27-3.65
			c-1.22,4.29-3.38,7.74-6.49,10.35c-3.11,2.62-6.17,3.92-9.17,3.92c-3,0-5.41-1.12-7.24-3.35c-1.83-2.23-2.74-5.4-2.74-9.5
			c0-4.1,0.73-8.08,2.2-11.94c1.46-3.86,3.66-7.13,6.59-9.81s6.2-4.02,9.81-4.02c2.07,0,4.19,0.5,6.36,1.49
			c-4.55,1.62-8.19,4.81-10.89,9.57C341.47,487.74,340.11,492.4,340.11,496.95z"/>
		<path class="st4" d="M385.17,487.75c1.62-5.86,3.57-10.18,5.85-12.95c2.28-2.77,4.4-4.16,6.36-4.16c1.96,0,3.44,0.73,4.43,2.2
			c0.99,1.47,1.49,3.36,1.49,5.68c0,2.32-0.69,4.45-2.06,6.39c-1.38,1.94-3.26,2.91-5.65,2.91c-0.63,0-1.38-0.18-2.23-0.54
			c1.4-1.76,2.1-3.88,2.1-6.36c0-1.44-0.59-2.17-1.76-2.17c-0.86,0-1.78,0.6-2.77,1.79c-0.99,1.2-1.94,2.84-2.84,4.94
			c-0.9,2.1-1.66,4.78-2.27,8.05c-0.61,3.27-0.91,6.75-0.91,10.45c0,0.45,0.11,2.37,0.34,5.75c-1.44,0.09-2.37,0.14-2.77,0.14
			c-2.57,0-4.42-0.45-5.55-1.35c-1.13-0.9-1.69-2.39-1.69-4.47c0-0.9,0.47-4.37,1.42-10.42c0.95-6.04,1.42-10.86,1.42-14.44
			c0-3.59-0.38-6.89-1.15-9.91c3.29,1.04,5.59,2.51,6.9,4.43c1.31,1.92,1.96,4.15,1.96,6.7
			C385.77,482.96,385.57,485.41,385.17,487.75z"/>
		<path class="st4" d="M417.53,486.77c-1.11,6.43-1.67,11.73-1.69,15.9c-0.02,4.17,0.24,6.87,0.78,8.08
			c-3.52-0.9-5.89-2.27-7.1-4.09s-1.83-4.5-1.83-8.02c0-1.9,0.36-5.32,1.08-10.28c0.72-4.96,1.08-8.82,1.08-11.57
			c0-2.75-0.14-4.87-0.41-6.36c0.99-0.09,1.92-0.14,2.77-0.14c2.62,0,4.43,0.44,5.45,1.32c1.01,0.88,1.52,2.38,1.52,4.5
			C419.19,476.79,418.64,480.34,417.53,486.77z M420.21,464.34c-1.26,0.18-2.37,0.27-3.31,0.27c-4.65,0-6.97-1.62-6.97-4.87
			c0-1.17,0.34-2.77,1.01-4.8c1.26-0.18,2.37-0.27,3.31-0.27c4.64,0,6.97,1.62,6.97,4.87C421.22,460.71,420.88,462.31,420.21,464.34
			z"/>
		<path class="st4" d="M453.83,470.7c2.66,0,4.57,0.82,5.72,2.47c1.15,1.65,1.72,3.88,1.72,6.7c0,2.82-0.44,6.78-1.32,11.87
			c-0.88,5.1-1.32,8.8-1.32,11.13c0,2.32,0.29,4.01,0.88,5.07c0.59,1.06,1.58,1.97,2.98,2.74c-0.59,0.04-1.42,0.07-2.5,0.07
			c-3.79,0-6.48-0.59-8.08-1.76c-1.6-1.17-2.4-3.22-2.4-6.16c0-1.67,0.45-4.93,1.35-9.77c0.9-4.85,1.35-8.47,1.35-10.86
			c0-2.98-0.9-4.47-2.71-4.47c-1.04,0-2.21,0.61-3.52,1.83c-1.31,1.22-2.57,2.88-3.79,4.97c-1.22,2.1-2.23,4.79-3.04,8.08
			s-1.22,6.57-1.22,9.84s0.14,5.69,0.41,7.27c-1.44,0.09-2.39,0.14-2.84,0.14c-2.57,0-4.42-0.45-5.55-1.35
			c-1.13-0.9-1.69-2.39-1.69-4.47c0-0.9,0.47-4.37,1.42-10.42c0.95-6.04,1.42-10.86,1.42-14.44c0-3.59-0.38-6.89-1.15-9.91
			c3.29,1.04,5.59,2.51,6.9,4.43c1.31,1.92,1.96,4.11,1.96,6.56c0,2.46-0.27,5.31-0.81,8.56c1.49-5.05,3.83-9.34,7.04-12.85
			C448.23,472.46,451.16,470.7,453.83,470.7z"/>
		<path class="st4" d="M478.45,496.95c0,2.12,0.39,3.85,1.18,5.18c0.79,1.33,1.9,1.99,3.35,1.99c2.12,0,4.14-1.24,6.05-3.72
			c1.92-2.48,3.45-5.66,4.6-9.54s1.72-7.57,1.72-11.06s-0.14-6.32-0.41-8.49c1.35-0.09,2.3-0.14,2.84-0.14
			c2.3,0,4.03,0.43,5.21,1.29c1.17,0.86,1.76,2.39,1.76,4.6c0,0.86-0.54,4.34-1.62,10.45c-1.08,6.11-1.62,11-1.62,14.68
			c0,3.68,0.7,6.93,2.1,9.77c-3.38-0.59-5.86-1.84-7.44-3.75c-1.58-1.92-2.37-4.68-2.37-8.29c0-0.63,0.09-1.85,0.27-3.65
			c-1.22,4.29-3.38,7.74-6.49,10.35c-3.11,2.62-6.17,3.92-9.17,3.92c-3,0-5.41-1.12-7.24-3.35c-1.83-2.23-2.74-5.4-2.74-9.5
			c0-4.1,0.73-8.08,2.2-11.94c1.46-3.86,3.66-7.13,6.59-9.81s6.2-4.02,9.81-4.02c2.07,0,4.19,0.5,6.36,1.49
			c-4.55,1.62-8.19,4.81-10.89,9.57C479.8,487.74,478.45,492.4,478.45,496.95z"/>
	</g>
	<path class="st4" d="M497.75,239.26c-18.27-71.66-75.07-127.6-146.94-145.05C216.03,61.49,95.24,163.25,95.24,292.69
		c0,46.03,15.28,88.55,41.02,122.77c0.07,0.09,0.14,0.19,0.21,0.29c0.08,0.11,0.17,0.22,0.26,0.33c1.56,1.93,3.87,2.97,6.21,2.97
		c1.57,0,3.16-0.46,4.54-1.42c2.57-1.77,3.77-4.78,3.38-7.67c-0.16-1.21-0.6-2.4-1.34-3.47l-3.35-4.85
		c-1.1-1.55-2.19-3.11-3.24-4.69c-19.92-29.88-31.54-65.74-31.54-104.26c0-104.43,85.36-189.29,189.96-188.49
		c104.17,0.8,188.52,87.11,187.01,191.27c-0.58,40.02-13.7,77.05-35.59,107.36l-49.95-0.04V284.62h17.33c1.07,0,2.12-0.21,3.1-0.62
		c3.45-1.43,5.8-4.62,6.29-8.52c0.07-0.52,0.1-1.05,0.1-1.58c0-4.59-2.35-9.65-5.91-12.34l-126.47-93.19l-0.12-0.09
		c-6.66-4.72-13.46,0.57-16.02,2.57c-0.26,0.2-0.5,0.39-0.73,0.56l-17.36,13.95v-1.63c0-0.43,0.01-0.85,0.01-1.25
		c0.05-3.25,0.12-7.7-3.31-11.18c-1.47-1.5-4.13-3.28-8.42-3.28h-37.98c-7.55,0-13.67,6.12-13.67,13.67v47.83l-41.99,31.21
		l-0.42,0.42c-2.43,2.43-3.28,6.33-3.28,9.94c0,2.78,0.5,5.38,1.18,7.02c1.51,3.65,4.74,5.92,8.42,5.92h17.94v122.94
		c0,6.63,5.37,12,12,12h132.55c6.63,0,12-5.37,12-12v-91.82c0-7.74-6.27-14.01-14.01-14.01h-55.94c-7.73,0-13.99,6.26-13.99,13.99
		v67.65h16.16v-65.48h51.61v85.49H197.7V278.35c0-5.8-4.7-10.5-10.5-10.5H175.2l34.84-25.9c3.65-2.71,5.81-7,5.81-11.55v-46.23
		h31.03v15.3c0,3.24,1.52,6.39,4.25,8.12c3.29,2.09,7.4,1.92,10.48-0.36l28.56-22.95c0.23-0.17,0.47-0.36,0.72-0.55l114.97,84.71
		h-8.91l-0.05,0.01c-1.89,0.06-5.03,0.44-7.52,3c-2.23,2.29-2.67,4.97-2.74,7.06c-0.02,0.49-0.03,1-0.01,1.53
		c0.01,0.37,0.03,0.8,0.03,1.32v123.6c0,7.72,6.26,13.97,13.97,13.97h28.09c0.01,0,5.13,0.01,10.99,0.03
		c-0.01,0.01-0.02,0.02-0.03,0.04h16.07c0.01,0,0.01,0,0.02,0c0.45,0,0.78,0,0.94,0v-0.06c2.88-0.27,5.53-1.75,7.28-4.09
		C499.15,367.76,514.53,305.1,497.75,239.26z"/>
</g>
</svg>
