<?xml version="1.0" encoding="utf-8"?>
<!-- Generator: Adobe Illustrator 26.0.0, SVG Export Plug-In . SVG Version: 6.00 Build 0)  -->
<svg version="1.1" id="Layer_1" xmlns="http://www.w3.org/2000/svg" xmlns:xlink="http://www.w3.org/1999/xlink" x="0px" y="0px"
	 viewBox="0 0 309.16 120.26" style="enable-background:new 0 0 309.16 120.26;" xml:space="preserve">
<style type="text/css">
	.st0{fill:#1F263F;}
	.st1{fill:#FFFFFF;}
</style>
<rect class="st0" width="309.16" height="120.26"/>
<g>
	<path class="st1" d="M122.55,47.07L69.46,7.95l-0.05-0.04c-2.8-1.98-5.65,0.24-6.73,1.08c-0.11,0.08-0.21,0.16-0.31,0.24
		l-7.29,5.85v-0.69c0-0.18,0-0.36,0.01-0.53c0.02-1.36,0.05-3.23-1.39-4.69c-0.62-0.63-1.73-1.38-3.53-1.38H34.22
		c-3.17,0-5.74,2.57-5.74,5.74v20.08l-17.63,13.1l-0.18,0.18c-1.02,1.02-1.38,2.66-1.38,4.17c0,1.17,0.21,2.26,0.5,2.95
		c0.63,1.53,1.99,2.48,3.53,2.48h7.53v51.61c0,0,0,0.12,0.02,0.33c0.01,0.08,0.02,0.18,0.03,0.28c0.07,0.6,0.24,1.17,0.51,1.68
		c0.37,0.76,0.99,1.55,2.03,2.1c0.57,0.32,1.2,0.53,1.88,0.61l0.01,0.04l0.17-0.02c0.13,0.01,0.27,0.02,0.4,0.02h25.45
		c1.33-0.42,3.1-1.51,3.48-4.38v-2.41v-1.94v-6.46v-1.71V70.47H79.8v33.95v1.94v1.76l0,0c0,0-0.09,4.4,4.63,5.02l0,0.01h25.89
		c1.33-0.42,3.08-1.52,3.45-4.37l0,0v-2.42v-8.91V60.08v-3.33h7.28c0.45,0,0.89-0.09,1.3-0.26c1.45-0.6,2.43-1.94,2.64-3.58
		c0.03-0.22,0.04-0.44,0.04-0.66C125.03,50.32,124.05,48.2,122.55,47.07z"/>
	<g>
		<g>
			<path class="st1" d="M169.16,44.69c1.18,0.26,1.78,0.85,1.78,1.78c-1.22,2.21-2.7,4-4.46,5.38c-1.76,1.38-3.42,2.29-4.99,2.74
				c-1.57,0.45-3.18,0.67-4.85,0.67c-3.78,0-6.94-1.44-9.5-4.32c-2.56-2.88-3.84-7.07-3.84-12.58c0-6.14,1.58-11.38,4.75-15.7
				c1.57-2.08,3.58-3.74,6.02-4.97c2.45-1.23,5.28-1.85,8.5-1.85c3.22,0,5.66,0.86,7.34,2.57c1.68,1.71,2.52,3.73,2.52,6.05
				c0,2.32-0.64,4.21-1.92,5.66c-1.28,1.46-2.94,2.18-4.99,2.18c-0.7,0-1.52-0.13-2.45-0.38c0.67-0.83,1.26-2.02,1.78-3.55
				s0.77-2.99,0.77-4.37c0-1.38-0.32-2.5-0.96-3.36c-0.64-0.86-1.65-1.3-3.02-1.3c-2.11,0-4.02,0.98-5.71,2.93
				c-1.7,1.95-2.96,4.35-3.79,7.2c-0.83,2.85-1.25,5.79-1.25,8.83c0,4.1,0.8,7.2,2.4,9.31c1.6,2.11,3.65,3.17,6.14,3.17
				c1.57,0,3.2-0.53,4.9-1.58S167.62,46.64,169.16,44.69z"/>
			<path class="st1" d="M183.03,45.46c0,1.5,0.28,2.73,0.84,3.67c0.56,0.94,1.35,1.42,2.38,1.42c1.5,0,2.94-0.88,4.3-2.64
				c1.36-1.76,2.45-4.02,3.26-6.77c0.82-2.75,1.22-5.37,1.22-7.85c0-2.48-0.1-4.49-0.29-6.02c0.96-0.06,1.63-0.1,2.02-0.1
				c1.63,0,2.86,0.3,3.7,0.91c0.83,0.61,1.25,1.7,1.25,3.26c0,0.61-0.38,3.08-1.15,7.42c-0.77,4.34-1.15,7.81-1.15,10.42
				s0.5,4.92,1.49,6.94c-2.4-0.42-4.16-1.3-5.28-2.66s-1.68-3.32-1.68-5.88c0-0.45,0.06-1.31,0.19-2.59
				c-0.86,3.04-2.4,5.49-4.61,7.34c-2.21,1.86-4.38,2.78-6.5,2.78c-2.13,0-3.84-0.79-5.14-2.38c-1.3-1.58-1.94-3.83-1.94-6.74
				c0-2.91,0.52-5.74,1.56-8.47c1.04-2.74,2.6-5.06,4.68-6.96c2.08-1.9,4.4-2.86,6.96-2.86c1.47,0,2.98,0.35,4.51,1.06
				c-3.23,1.15-5.81,3.42-7.73,6.79C183.99,38.92,183.03,42.23,183.03,45.46z"/>
			<path class="st1" d="M218.21,29.67c-0.9,0-1.7,0.3-2.4,0.89c-0.71,0.59-1.06,1.43-1.06,2.52s0.38,2.11,1.13,3.07
				s1.67,1.8,2.76,2.52c1.09,0.72,2.18,1.46,3.29,2.21c1.1,0.75,2.07,1.68,2.9,2.78c0.83,1.1,1.3,2.33,1.39,3.67
				c0,2.3-0.99,4.24-2.98,5.81c-1.98,1.57-4.45,2.35-7.39,2.35c-2.94,0-5.26-0.59-6.94-1.78c-1.68-1.18-2.52-2.54-2.52-4.08
				c0-1.54,0.47-2.78,1.42-3.72c0.94-0.94,2.12-1.42,3.53-1.42c0.74,0,1.42,0.13,2.06,0.38c-1.02,1.09-1.54,2.24-1.54,3.46
				c0,1.22,0.34,2.19,1.01,2.93s1.58,1.1,2.74,1.1s2.12-0.29,2.9-0.89c0.78-0.59,1.18-1.36,1.18-2.3c0-0.94-0.27-1.78-0.82-2.52
				c-0.54-0.74-1.22-1.38-2.04-1.94c-0.82-0.56-1.7-1.19-2.66-1.9c-0.96-0.7-1.85-1.42-2.66-2.14c-0.82-0.72-1.5-1.63-2.04-2.74
				c-0.54-1.1-0.82-2.31-0.82-3.62c0-2.27,0.94-4.14,2.81-5.59s4.21-2.18,7.01-2.18c2.8,0,4.85,0.54,6.14,1.63s1.94,2.36,1.94,3.82
				c0,1.46-0.46,2.7-1.37,3.72c-0.91,1.03-2.09,1.54-3.53,1.54c-0.7,0-1.5-0.14-2.4-0.43c0.7-0.61,1.25-1.3,1.63-2.09
				c0.38-0.78,0.58-1.56,0.58-2.33c0-0.77-0.32-1.42-0.96-1.94C219.87,29.93,219.11,29.67,218.21,29.67z"/>
			<path class="st1" d="M237.6,45.46c0,1.5,0.28,2.73,0.84,3.67c0.56,0.94,1.35,1.42,2.38,1.42c1.5,0,2.94-0.88,4.3-2.64
				c1.36-1.76,2.45-4.02,3.26-6.77c0.82-2.75,1.22-5.37,1.22-7.85c0-2.48-0.1-4.49-0.29-6.02c0.96-0.06,1.63-0.1,2.02-0.1
				c1.63,0,2.86,0.3,3.7,0.91c0.83,0.61,1.25,1.7,1.25,3.26c0,0.61-0.38,3.08-1.15,7.42c-0.77,4.34-1.15,7.81-1.15,10.42
				s0.5,4.92,1.49,6.94c-2.4-0.42-4.16-1.3-5.28-2.66s-1.68-3.32-1.68-5.88c0-0.45,0.06-1.31,0.19-2.59
				c-0.86,3.04-2.4,5.49-4.61,7.34c-2.21,1.86-4.38,2.78-6.5,2.78c-2.13,0-3.84-0.79-5.14-2.38c-1.3-1.58-1.94-3.83-1.94-6.74
				c0-2.91,0.52-5.74,1.56-8.47c1.04-2.74,2.6-5.06,4.68-6.96c2.08-1.9,4.4-2.86,6.96-2.86c1.47,0,2.98,0.35,4.51,1.06
				c-3.23,1.15-5.81,3.42-7.73,6.79C238.56,38.92,237.6,42.23,237.6,45.46z"/>
		</g>
		<g>
			<path class="st1" d="M169.16,92.99c1.18,0.26,1.78,0.85,1.78,1.78c-1.22,2.21-2.7,4-4.46,5.38c-1.76,1.38-3.42,2.29-4.99,2.74
				c-1.57,0.45-3.18,0.67-4.85,0.67c-3.78,0-6.94-1.44-9.5-4.32c-2.56-2.88-3.84-7.07-3.84-12.58c0-6.14,1.58-11.38,4.75-15.7
				c1.57-2.08,3.58-3.74,6.02-4.97c2.45-1.23,5.28-1.85,8.5-1.85c3.22,0,5.66,0.86,7.34,2.57c1.68,1.71,2.52,3.73,2.52,6.05
				c0,2.32-0.64,4.21-1.92,5.66c-1.28,1.46-2.94,2.18-4.99,2.18c-0.7,0-1.52-0.13-2.45-0.38c0.67-0.83,1.26-2.02,1.78-3.55
				s0.77-2.99,0.77-4.37c0-1.38-0.32-2.5-0.96-3.36c-0.64-0.86-1.65-1.3-3.02-1.3c-2.11,0-4.02,0.98-5.71,2.93
				c-1.7,1.95-2.96,4.35-3.79,7.2c-0.83,2.85-1.25,5.79-1.25,8.83c0,4.1,0.8,7.2,2.4,9.31c1.6,2.11,3.65,3.17,6.14,3.17
				c1.57,0,3.2-0.53,4.9-1.58S167.62,94.95,169.16,92.99z"/>
			<path class="st1" d="M183.03,93.76c0,1.5,0.28,2.73,0.84,3.67c0.56,0.94,1.35,1.42,2.38,1.42c1.5,0,2.94-0.88,4.3-2.64
				c1.36-1.76,2.45-4.02,3.26-6.77c0.82-2.75,1.22-5.37,1.22-7.85c0-2.48-0.1-4.49-0.29-6.02c0.96-0.06,1.63-0.1,2.02-0.1
				c1.63,0,2.86,0.3,3.7,0.91c0.83,0.61,1.25,1.7,1.25,3.26c0,0.61-0.38,3.08-1.15,7.42c-0.77,4.34-1.15,7.81-1.15,10.42
				s0.5,4.92,1.49,6.94c-2.4-0.42-4.16-1.3-5.28-2.66s-1.68-3.32-1.68-5.88c0-0.45,0.06-1.31,0.19-2.59
				c-0.86,3.04-2.4,5.49-4.61,7.34c-2.21,1.86-4.38,2.78-6.5,2.78c-2.13,0-3.84-0.79-5.14-2.38c-1.3-1.58-1.94-3.83-1.94-6.74
				c0-2.91,0.52-5.74,1.56-8.47c1.04-2.74,2.6-5.06,4.68-6.96c2.08-1.9,4.4-2.86,6.96-2.86c1.47,0,2.98,0.35,4.51,1.06
				c-3.23,1.15-5.81,3.42-7.73,6.79C183.99,87.23,183.03,90.53,183.03,93.76z"/>
			<path class="st1" d="M214.99,87.23c1.15-4.16,2.54-7.22,4.15-9.19c1.62-1.97,3.12-2.95,4.51-2.95s2.44,0.52,3.14,1.56
				s1.06,2.38,1.06,4.03c0,1.65-0.49,3.16-1.46,4.54c-0.98,1.38-2.31,2.06-4.01,2.06c-0.45,0-0.98-0.13-1.58-0.38
				c0.99-1.25,1.49-2.75,1.49-4.51c0-1.02-0.42-1.54-1.25-1.54c-0.61,0-1.26,0.42-1.97,1.27c-0.7,0.85-1.38,2.02-2.02,3.5
				c-0.64,1.49-1.18,3.39-1.61,5.71c-0.43,2.32-0.65,4.79-0.65,7.42c0,0.32,0.08,1.68,0.24,4.08c-1.02,0.06-1.68,0.1-1.97,0.1
				c-1.82,0-3.14-0.32-3.94-0.96c-0.8-0.64-1.2-1.7-1.2-3.17c0-0.64,0.34-3.1,1.01-7.39s1.01-7.7,1.01-10.25s-0.27-4.89-0.82-7.03
				c2.34,0.74,3.97,1.78,4.9,3.14c0.93,1.36,1.39,2.94,1.39,4.75S215.28,85.57,214.99,87.23z"/>
			<path class="st1" d="M237.96,86.54c-0.78,4.56-1.18,8.32-1.2,11.28c-0.02,2.96,0.17,4.87,0.55,5.74c-2.5-0.64-4.18-1.61-5.04-2.9
				c-0.86-1.3-1.3-3.19-1.3-5.69c0-1.34,0.26-3.78,0.77-7.3c0.51-3.52,0.77-6.26,0.77-8.21c0-1.95-0.1-3.46-0.29-4.51
				c0.7-0.06,1.36-0.1,1.97-0.1c1.86,0,3.14,0.31,3.86,0.94s1.08,1.69,1.08,3.19C239.14,79.46,238.75,81.98,237.96,86.54z
				 M239.86,70.62c-0.9,0.13-1.68,0.19-2.35,0.19c-3.3,0-4.94-1.15-4.94-3.46c0-0.83,0.24-1.97,0.72-3.41
				c0.9-0.13,1.68-0.19,2.35-0.19c3.3,0,4.94,1.15,4.94,3.46C240.58,68.05,240.34,69.18,239.86,70.62z"/>
			<path class="st1" d="M263.71,75.14c1.89,0,3.24,0.58,4.06,1.75c0.82,1.17,1.22,2.75,1.22,4.75c0,2-0.31,4.81-0.94,8.42
				s-0.94,6.25-0.94,7.9c0,1.65,0.21,2.85,0.62,3.6c0.42,0.75,1.12,1.4,2.11,1.94c-0.42,0.03-1.01,0.05-1.78,0.05
				c-2.69,0-4.6-0.42-5.74-1.25c-1.14-0.83-1.7-2.29-1.7-4.37c0-1.18,0.32-3.5,0.96-6.94c0.64-3.44,0.96-6.01,0.96-7.7
				c0-2.11-0.64-3.17-1.92-3.17c-0.74,0-1.57,0.43-2.5,1.3s-1.82,2.04-2.69,3.53c-0.86,1.49-1.58,3.4-2.16,5.74
				s-0.86,4.66-0.86,6.98c0,2.32,0.1,4.04,0.29,5.16c-1.02,0.06-1.7,0.1-2.02,0.1c-1.82,0-3.14-0.32-3.94-0.96
				c-0.8-0.64-1.2-1.7-1.2-3.17c0-0.64,0.34-3.1,1.01-7.39s1.01-7.7,1.01-10.25s-0.27-4.89-0.82-7.03c2.34,0.74,3.97,1.78,4.9,3.14
				c0.93,1.36,1.39,2.91,1.39,4.66c0,1.75-0.19,3.77-0.58,6.07c1.06-3.58,2.72-6.62,4.99-9.12
				C259.75,76.38,261.83,75.14,263.71,75.14z"/>
			<path class="st1" d="M281.19,93.76c0,1.5,0.28,2.73,0.84,3.67c0.56,0.94,1.35,1.42,2.38,1.42c1.5,0,2.94-0.88,4.3-2.64
				c1.36-1.76,2.45-4.02,3.26-6.77c0.82-2.75,1.22-5.37,1.22-7.85c0-2.48-0.1-4.49-0.29-6.02c0.96-0.06,1.63-0.1,2.02-0.1
				c1.63,0,2.86,0.3,3.7,0.91c0.83,0.61,1.25,1.7,1.25,3.26c0,0.61-0.38,3.08-1.15,7.42c-0.77,4.34-1.15,7.81-1.15,10.42
				s0.5,4.92,1.49,6.94c-2.4-0.42-4.16-1.3-5.28-2.66s-1.68-3.32-1.68-5.88c0-0.45,0.06-1.31,0.19-2.59
				c-0.86,3.04-2.4,5.49-4.61,7.34c-2.21,1.86-4.38,2.78-6.5,2.78c-2.13,0-3.84-0.79-5.14-2.38c-1.3-1.58-1.94-3.83-1.94-6.74
				c0-2.91,0.52-5.74,1.56-8.47c1.04-2.74,2.6-5.06,4.68-6.96c2.08-1.9,4.4-2.86,6.96-2.86c1.47,0,2.98,0.35,4.51,1.06
				c-3.23,1.15-5.81,3.42-7.73,6.79C282.15,87.23,281.19,90.53,281.19,93.76z"/>
		</g>
	</g>
</g>
</svg>
