<?xml version="1.0" encoding="utf-8"?>
<!-- Generator: Adobe Illustrator 25.3.0, SVG Export Plug-In . SVG Version: 6.00 Build 0)  -->
<svg version="1.1" id="Capa_1" xmlns="http://www.w3.org/2000/svg" xmlns:xlink="http://www.w3.org/1999/xlink" x="0px" y="0px"
	 viewBox="0 0 600 600" style="enable-background:new 0 0 600 600;" xml:space="preserve">
<style type="text/css">
	.st0{fill:#FFFFFF;}
</style>
<path class="st0" d="M272.9,287.3c-11.1-43.7-45.7-77.7-89.5-88.4C101.3,179,27.7,241,27.7,319.8c0,28,9.3,53.9,25,74.8
	c0,0.1,0.1,0.1,0.1,0.2c0.1,0.1,0.1,0.1,0.2,0.2c1,1.2,2.4,1.8,3.8,1.8c1,0,1.9-0.3,2.8-0.9c1.6-1.1,2.3-2.9,2.1-4.7
	c-0.1-0.7-0.4-1.5-0.8-2.1l-2-3c-0.7-0.9-1.3-1.9-2-2.9c-12.1-18.2-19.2-40-19.2-63.5c0-63.6,52-115.3,115.7-114.8
	c63.5,0.5,114.8,53.1,113.9,116.5c-0.4,24.4-8.3,46.9-21.7,65.4l-30.4,0v-72h10.6c0.6,0,1.3-0.1,1.9-0.4c2.1-0.9,3.5-2.8,3.8-5.2
	c0-0.3,0.1-0.6,0.1-1c0-2.8-1.4-5.9-3.6-7.5l-77-56.8l-0.1-0.1c-4.1-2.9-8.2,0.3-9.8,1.6c-0.2,0.1-0.3,0.2-0.4,0.3l-10.6,8.5v-1
	c0-0.3,0-0.5,0-0.8c0-2,0.1-4.7-2-6.8c-0.9-0.9-2.5-2-5.1-2H99.6c-4.6,0-8.3,3.7-8.3,8.3v29.1l-25.6,19l-0.3,0.3
	c-1.5,1.5-2,3.9-2,6.1c0,1.7,0.3,3.3,0.7,4.3c0.9,2.2,2.9,3.6,5.1,3.6h10.9v74.9c0,4,3.3,7.3,7.3,7.3h80.7c4,0,7.3-3.3,7.3-7.3
	v-55.9c0-4.7-3.8-8.5-8.5-8.5H133c-4.7,0-8.5,3.8-8.5,8.5v41.2h9.8v-39.9h31.4v52.1H90.1v-75.8c0-3.5-2.9-6.4-6.4-6.4h-7.3
	l21.2-15.8c2.2-1.7,3.5-4.3,3.5-7v-28.2h18.9v9.3c0,2,0.9,3.9,2.6,4.9c2,1.3,4.5,1.2,6.4-0.2l17.4-14c0.1-0.1,0.3-0.2,0.4-0.3
	l70,51.6h-5.4l0,0c-1.2,0-3.1,0.3-4.6,1.8c-1.4,1.4-1.6,3-1.7,4.3c0,0.3,0,0.6,0,0.9c0,0.2,0,0.5,0,0.8v75.3c0,4.7,3.8,8.5,8.5,8.5
	h17.1c0,0,3.1,0,6.7,0c0,0,0,0,0,0h9.8c0,0,0,0,0,0c0.3,0,0.5,0,0.6,0v0c1.8-0.2,3.4-1.1,4.4-2.5
	C273.7,365.5,283.1,327.4,272.9,287.3z"/>
<g>
	<g>
		<path class="st0" d="M342.9,272.5c2.1,0.5,3.2,1.5,3.2,3.2c-2.2,4-4.9,7.2-8.1,9.7c-3.2,2.5-6.2,4.1-9,4.9
			c-2.8,0.8-5.8,1.2-8.8,1.2c-6.8,0-12.6-2.6-17.2-7.8c-4.6-5.2-6.9-12.8-6.9-22.7c0-11.1,2.9-20.6,8.6-28.4c2.8-3.8,6.5-6.8,10.9-9
			c4.4-2.2,9.5-3.3,15.4-3.3c5.8,0,10.2,1.5,13.3,4.6c3,3.1,4.6,6.7,4.6,10.9c0,4.2-1.2,7.6-3.5,10.2c-2.3,2.6-5.3,3.9-9,3.9
			c-1.3,0-2.7-0.2-4.4-0.7c1.2-1.5,2.3-3.6,3.2-6.4c0.9-2.8,1.4-5.4,1.4-7.9c0-2.5-0.6-4.5-1.7-6.1c-1.2-1.6-3-2.3-5.5-2.3
			c-3.8,0-7.3,1.8-10.3,5.3c-3.1,3.5-5.4,7.9-6.9,13c-1.5,5.2-2.3,10.5-2.3,16c0,7.4,1.4,13,4.3,16.8s6.6,5.7,11.1,5.7
			c2.8,0,5.8-1,8.9-2.9C337.2,278.7,340.1,276,342.9,272.5z"/>
		<path class="st0" d="M368,273.9c0,2.7,0.5,4.9,1.5,6.6c1,1.7,2.4,2.6,4.3,2.6c2.7,0,5.3-1.6,7.8-4.8c2.5-3.2,4.4-7.3,5.9-12.2
			c1.5-5,2.2-9.7,2.2-14.2c0-4.5-0.2-8.1-0.5-10.9c1.7-0.1,3-0.2,3.6-0.2c2.9,0,5.2,0.6,6.7,1.6c1.5,1.1,2.3,3.1,2.3,5.9
			c0,1.1-0.7,5.6-2.1,13.4c-1.4,7.8-2.1,14.1-2.1,18.8c0,4.7,0.9,8.9,2.7,12.5c-4.3-0.8-7.5-2.4-9.5-4.8c-2-2.5-3-6-3-10.6
			c0-0.8,0.1-2.4,0.3-4.7c-1.6,5.5-4.3,9.9-8.3,13.3c-4,3.4-7.9,5-11.8,5c-3.8,0-6.9-1.4-9.3-4.3c-2.3-2.9-3.5-6.9-3.5-12.2
			c0-5.3,0.9-10.4,2.8-15.3c1.9-4.9,4.7-9.1,8.5-12.6c3.8-3.4,8-5.2,12.6-5.2c2.7,0,5.4,0.6,8.2,1.9c-5.8,2.1-10.5,6.2-14,12.3
			C369.7,262,368,268,368,273.9z"/>
		<path class="st0" d="M431.6,245.3c-1.6,0-3.1,0.5-4.3,1.6c-1.3,1.1-1.9,2.6-1.9,4.6c0,2,0.7,3.8,2,5.6c1.4,1.7,3,3.3,5,4.6
			c2,1.3,3.9,2.6,5.9,4c2,1.4,3.7,3,5.2,5c1.5,2,2.3,4.2,2.5,6.6c0,4.2-1.8,7.7-5.4,10.5c-3.6,2.8-8,4.3-13.4,4.3
			c-5.3,0-9.5-1.1-12.5-3.2c-3-2.1-4.6-4.6-4.6-7.4c0-2.8,0.9-5,2.6-6.7c1.7-1.7,3.8-2.6,6.4-2.6c1.3,0,2.6,0.2,3.7,0.7
			c-1.9,2-2.8,4.1-2.8,6.2c0,2.2,0.6,4,1.8,5.3c1.2,1.3,2.9,2,4.9,2c2.1,0,3.8-0.5,5.3-1.6c1.4-1.1,2.1-2.5,2.1-4.2
			c0-1.7-0.5-3.2-1.5-4.6c-1-1.3-2.2-2.5-3.7-3.5c-1.5-1-3.1-2.2-4.8-3.4c-1.7-1.3-3.3-2.6-4.8-3.9c-1.5-1.3-2.7-3-3.7-4.9
			c-1-2-1.5-4.2-1.5-6.6c0-4.1,1.7-7.5,5.1-10.1c3.4-2.6,7.6-3.9,12.7-3.9s8.8,1,11.1,3c2.3,2,3.5,4.3,3.5,6.9
			c0,2.6-0.8,4.9-2.5,6.7c-1.6,1.9-3.8,2.8-6.4,2.8c-1.3,0-2.7-0.3-4.3-0.8c1.3-1.1,2.3-2.4,3-3.8c0.7-1.4,1-2.8,1-4.2
			c0-1.4-0.6-2.6-1.7-3.5C434.6,245.8,433.2,245.3,431.6,245.3z"/>
		<path class="st0" d="M466.7,273.9c0,2.7,0.5,4.9,1.5,6.6c1,1.7,2.4,2.6,4.3,2.6c2.7,0,5.3-1.6,7.8-4.8c2.5-3.2,4.4-7.3,5.9-12.2
			c1.5-5,2.2-9.7,2.2-14.2c0-4.5-0.2-8.1-0.5-10.9c1.7-0.1,3-0.2,3.6-0.2c2.9,0,5.2,0.6,6.7,1.6c1.5,1.1,2.3,3.1,2.3,5.9
			c0,1.1-0.7,5.6-2.1,13.4c-1.4,7.8-2.1,14.1-2.1,18.8c0,4.7,0.9,8.9,2.7,12.5c-4.3-0.8-7.5-2.4-9.5-4.8c-2-2.5-3-6-3-10.6
			c0-0.8,0.1-2.4,0.3-4.7c-1.6,5.5-4.3,9.9-8.3,13.3c-4,3.4-7.9,5-11.8,5c-3.8,0-6.9-1.4-9.3-4.3c-2.3-2.9-3.5-6.9-3.5-12.2
			c0-5.3,0.9-10.4,2.8-15.3c1.9-4.9,4.7-9.1,8.5-12.6c3.8-3.4,8-5.2,12.6-5.2c2.7,0,5.4,0.6,8.2,1.9c-5.8,2.1-10.5,6.2-14,12.3
			C468.4,262,466.7,268,466.7,273.9z"/>
	</g>
	<g>
		<path class="st0" d="M342.9,359c2.1,0.5,3.2,1.5,3.2,3.2c-2.2,4-4.9,7.2-8.1,9.7c-3.2,2.5-6.2,4.1-9,4.9c-2.8,0.8-5.8,1.2-8.8,1.2
			c-6.8,0-12.6-2.6-17.2-7.8c-4.6-5.2-6.9-12.8-6.9-22.7c0-11.1,2.9-20.6,8.6-28.4c2.8-3.8,6.5-6.8,10.9-9c4.4-2.2,9.5-3.3,15.4-3.3
			c5.8,0,10.2,1.5,13.3,4.6c3,3.1,4.6,6.7,4.6,10.9c0,4.2-1.2,7.6-3.5,10.2c-2.3,2.6-5.3,3.9-9,3.9c-1.3,0-2.7-0.2-4.4-0.7
			c1.2-1.5,2.3-3.6,3.2-6.4c0.9-2.8,1.4-5.4,1.4-7.9c0-2.5-0.6-4.5-1.7-6.1c-1.2-1.6-3-2.3-5.5-2.3c-3.8,0-7.3,1.8-10.3,5.3
			c-3.1,3.5-5.4,7.9-6.9,13c-1.5,5.2-2.3,10.5-2.3,16c0,7.4,1.4,13,4.3,16.8c2.9,3.8,6.6,5.7,11.1,5.7c2.8,0,5.8-1,8.9-2.9
			C337.2,365.3,340.1,362.6,342.9,359z"/>
		<path class="st0" d="M368,360.4c0,2.7,0.5,4.9,1.5,6.6c1,1.7,2.4,2.6,4.3,2.6c2.7,0,5.3-1.6,7.8-4.8c2.5-3.2,4.4-7.3,5.9-12.2
			c1.5-5,2.2-9.7,2.2-14.2s-0.2-8.1-0.5-10.9c1.7-0.1,3-0.2,3.6-0.2c2.9,0,5.2,0.6,6.7,1.6c1.5,1.1,2.3,3.1,2.3,5.9
			c0,1.1-0.7,5.6-2.1,13.4c-1.4,7.8-2.1,14.1-2.1,18.8c0,4.7,0.9,8.9,2.7,12.5c-4.3-0.8-7.5-2.4-9.5-4.8c-2-2.5-3-6-3-10.6
			c0-0.8,0.1-2.4,0.3-4.7c-1.6,5.5-4.3,9.9-8.3,13.3c-4,3.4-7.9,5-11.8,5c-3.8,0-6.9-1.4-9.3-4.3c-2.3-2.9-3.5-6.9-3.5-12.2
			c0-5.3,0.9-10.4,2.8-15.3c1.9-4.9,4.7-9.1,8.5-12.6c3.8-3.4,8-5.2,12.6-5.2c2.7,0,5.4,0.6,8.2,1.9c-5.8,2.1-10.5,6.2-14,12.3
			C369.7,348.6,368,354.6,368,360.4z"/>
		<path class="st0" d="M425.8,348.6c2.1-7.5,4.6-13.1,7.5-16.6c2.9-3.6,5.6-5.3,8.2-5.3c2.5,0,4.4,0.9,5.7,2.8
			c1.3,1.9,1.9,4.3,1.9,7.3c0,3-0.9,5.7-2.6,8.2c-1.8,2.5-4.2,3.7-7.2,3.7c-0.8,0-1.8-0.2-2.9-0.7c1.8-2.3,2.7-5,2.7-8.2
			c0-1.9-0.8-2.8-2.3-2.8c-1.1,0-2.3,0.8-3.6,2.3c-1.3,1.5-2.5,3.6-3.6,6.3c-1.2,2.7-2.1,6.1-2.9,10.3c-0.8,4.2-1.2,8.7-1.2,13.4
			c0,0.6,0.1,3,0.4,7.4c-1.9,0.1-3,0.2-3.6,0.2c-3.3,0-5.7-0.6-7.1-1.7c-1.4-1.2-2.2-3.1-2.2-5.7c0-1.2,0.6-5.6,1.8-13.4
			c1.2-7.8,1.8-13.9,1.8-18.5s-0.5-8.8-1.5-12.7c4.2,1.3,7.2,3.2,8.9,5.7c1.7,2.5,2.5,5.3,2.5,8.6
			C426.6,342.5,426.3,345.6,425.8,348.6z"/>
		<path class="st0" d="M467.3,347.4c-1.4,8.2-2.1,15-2.2,20.4c0,5.4,0.3,8.8,1,10.4c-4.5-1.2-7.5-2.9-9.1-5.3
			c-1.6-2.3-2.3-5.8-2.3-10.3c0-2.4,0.5-6.8,1.4-13.2c0.9-6.4,1.4-11.3,1.4-14.8c0-3.5-0.2-6.2-0.5-8.2c1.3-0.1,2.5-0.2,3.6-0.2
			c3.4,0,5.7,0.6,7,1.7c1.3,1.1,2,3.1,2,5.8C469.4,334.6,468.7,339.1,467.3,347.4z M470.7,318.6c-1.6,0.2-3,0.3-4.3,0.3
			c-6,0-8.9-2.1-8.9-6.2c0-1.5,0.4-3.6,1.3-6.2c1.6-0.2,3-0.3,4.3-0.3c6,0,8.9,2.1,8.9,6.2C472,313.9,471.6,316,470.7,318.6z"/>
		<path class="st0" d="M513.9,326.7c3.4,0,5.9,1.1,7.3,3.2c1.5,2.1,2.2,5,2.2,8.6c0,3.6-0.6,8.7-1.7,15.2
			c-1.1,6.5-1.7,11.3-1.7,14.3c0,3,0.4,5.1,1.1,6.5c0.8,1.4,2,2.5,3.8,3.5c-0.8,0.1-1.8,0.1-3.2,0.1c-4.9,0-8.3-0.8-10.4-2.3
			c-2.1-1.5-3.1-4.1-3.1-7.9c0-2.1,0.6-6.3,1.7-12.5c1.2-6.2,1.7-10.9,1.7-13.9c0-3.8-1.2-5.7-3.5-5.7c-1.3,0-2.8,0.8-4.5,2.3
			c-1.7,1.6-3.3,3.7-4.9,6.4c-1.6,2.7-2.9,6.1-3.9,10.4c-1,4.2-1.6,8.4-1.6,12.6c0,4.2,0.2,7.3,0.5,9.3c-1.9,0.1-3.1,0.2-3.6,0.2
			c-3.3,0-5.7-0.6-7.1-1.7c-1.4-1.2-2.2-3.1-2.2-5.7c0-1.2,0.6-5.6,1.8-13.4c1.2-7.8,1.8-13.9,1.8-18.5s-0.5-8.8-1.5-12.7
			c4.2,1.3,7.2,3.2,8.9,5.7c1.7,2.5,2.5,5.3,2.5,8.4c0,3.2-0.3,6.8-1,11c1.9-6.5,4.9-12,9-16.5C506.7,329,510.5,326.7,513.9,326.7z"
			/>
		<path class="st0" d="M545.5,360.4c0,2.7,0.5,4.9,1.5,6.6c1,1.7,2.4,2.6,4.3,2.6c2.7,0,5.3-1.6,7.8-4.8c2.5-3.2,4.4-7.3,5.9-12.2
			c1.5-5,2.2-9.7,2.2-14.2s-0.2-8.1-0.5-10.9c1.7-0.1,3-0.2,3.6-0.2c2.9,0,5.2,0.6,6.7,1.6c1.5,1.1,2.3,3.1,2.3,5.9
			c0,1.1-0.7,5.6-2.1,13.4c-1.4,7.8-2.1,14.1-2.1,18.8c0,4.7,0.9,8.9,2.7,12.5c-4.3-0.8-7.5-2.4-9.5-4.8c-2-2.5-3-6-3-10.6
			c0-0.8,0.1-2.4,0.3-4.7c-1.6,5.5-4.3,9.9-8.3,13.3c-4,3.4-7.9,5-11.8,5c-3.8,0-6.9-1.4-9.3-4.3c-2.3-2.9-3.5-6.9-3.5-12.2
			c0-5.3,0.9-10.4,2.8-15.3c1.9-4.9,4.7-9.1,8.5-12.6c3.8-3.4,8-5.2,12.6-5.2c2.7,0,5.4,0.6,8.2,1.9c-5.8,2.1-10.5,6.2-14,12.3
			C547.2,348.6,545.5,354.6,545.5,360.4z"/>
	</g>
</g>
</svg>
