<?xml version="1.0" encoding="utf-8"?>
<!-- Generator: Adobe Illustrator 25.3.0, SVG Export Plug-In . SVG Version: 6.00 Build 0)  -->
<svg version="1.1" id="Capa_1" xmlns="http://www.w3.org/2000/svg" xmlns:xlink="http://www.w3.org/1999/xlink" x="0px" y="0px"
	 viewBox="0 0 2148.8 2143.4" style="enable-background:new 0 0 2148.8 2143.4;" xml:space="preserve">
<style type="text/css">
	.st0{fill-rule:evenodd;clip-rule:evenodd;fill:#FFFFFF;}
	.st1{fill-rule:evenodd;clip-rule:evenodd;fill:#0077A6;}
</style>
<path class="st0" d="M0,0h2148.8v2143.4H0V0z"/>
<path class="st1" d="M2148.8,1388.4c0,53.7-34,78.7-94.8,78.7h-116.3v-53.7H2054c10.7,0,19.7-1.8,23.3-5.3c3.6-3.6,7.1-9,7.1-16.1
	c0-7.2-3.6-14.3-7.1-17.9c-3.6-3.6-10.7-5.4-21.5-5.4c-55.4-1.8-125.2,1.8-125.2-76.9c0-35.8,23.3-75.2,85.9-75.2h119.9v53.7h-110.9
	c-10.7,0-17.9,0-23.3,3.6c-5.4,5.4-8.9,10.7-8.9,19.7s5.4,14.3,12.5,17.9c7.2,1.8,14.3,3.6,23.3,3.6h32.2c34,0,55.5,7.1,69.8,19.7
	C2141.6,1347.2,2148.8,1363.4,2148.8,1388.4z M1896.5,1334.7c-14.3-12.5-35.8-19.7-69.8-19.7h-32.2c-8.9,0-16.1-1.8-23.3-3.6
	c-7.2-3.6-12.5-9-12.5-17.9s1.8-14.3,8.9-19.7c5.4-3.6,12.5-3.6,23.3-3.6h110.9v-53.7H1782c-64.4,0-85.9,39.4-85.9,75.2
	c0,78.7,69.8,75.1,125.3,76.9c10.7,0,17.9,1.8,21.5,5.4s7.2,10.7,7.2,17.9c0,7.1-3.6,12.5-7.2,16.1c-5.4,3.6-12.5,5.3-23.3,5.3
	h-116.3v53.7h116.3c60.8,0,94.8-25,94.8-78.7C1914.4,1363.4,1907.3,1347.2,1896.5,1334.7L1896.5,1334.7z M1667.5,1415.2h-141.3
	v-50.1H1664V1315h-137.8v-46.5h141.3v-51.9h-200.4v250.5h200.4V1415.2L1667.5,1415.2z M1402.7,1229.2
	c-19.7-10.7-42.9-12.5-73.4-12.5h-137.8v250.5h60.8V1376h64.4c21.5,0,34,1.8,42.9,10.7c10.7,12.5,10.7,34,10.7,50.1v30.4h59v-48.3
	c0-23.3-1.8-34-8.9-46.5c-5.4-7.2-16.1-16.1-30.4-21.5c16.1-5.3,42.9-26.8,42.9-66.2C1433.1,1256,1422.4,1239.9,1402.7,1229.2z
	 M1062.8,1216.6H871.3l-76.9,82.3l-73.4-82.3H479.5v250.5h238l76.9-82.3l73.4,82.3h116.3V1383h75.1c51.9,0,103.8-14.3,103.8-84.1
	C1163,1231,1109.3,1216.6,1062.8,1216.6L1062.8,1216.6z M1354.4,1320.4c-8.9,3.6-17.9,3.6-28.6,3.6l-73.4,1.8v-57.3h73.4
	c10.7,0,21.5,0,28.6,5.4c7.2,3.6,12.5,10.7,12.5,21.5S1361.6,1315.1,1354.4,1320.4z M1062.8,1332.9h-78.7v-64.4h78.7
	c21.5,0,35.8,9,35.8,30.4C1098.6,1320.4,1084.2,1332.9,1062.8,1332.9z M832,1341.9l93-98.4v202.2L832,1341.9z M687,1415.2H538.5
	v-50.1h132.4V1315H538.5v-46.5h150.3l66.2,73.4L687,1415.2L687,1415.2z M1982.4,1035.9h-85.9L1783.8,848v187.9h-121.6l-23.3-55.5
	h-125.2l-23.3,55.5h-69.8c-28.6,0-66.2-7.2-87.6-28.6c-19.7-21.5-30.4-50.1-30.4-94.8c0-37.6,5.4-71.6,32.2-98.4
	c17.9-19.7,50.1-28.6,91.2-28.6h57.2v53.7H1426c-21.5,0-34,3.6-46.5,14.3c-10.7,10.7-16.1,30.4-16.1,57.2s5.4,46.5,16.1,59.1
	c8.9,8.9,25.1,12.5,41.1,12.5h26.8l85.9-196.8h89.5l100.2,236.2V785.4h93L1921.6,959V785.4h60.8V1035.9L1982.4,1035.9L1982.4,1035.9
	z M1272.1,785.4h-60.8v250.5h60.8V785.4L1272.1,785.4z M1145.1,796.2c-19.7-10.7-41.1-10.7-71.6-10.7H935.7V1036h59v-91.3h64.4
	c21.5,0,35.8,1.8,44.7,10.7c10.7,12.5,8.9,34,8.9,48.3v32.2h60.8v-50.1c0-21.5-1.8-32.2-10.7-44.7c-5.4-7.2-16.1-16.1-28.6-21.5
	c16.1-7.2,42.9-26.8,42.9-66.2C1177.3,824.8,1164.7,808.7,1145.1,796.2L1145.1,796.2z M892.8,984.1H753.2V934H891v-51.9H753.2v-44.7
	h139.6v-51.9H692.4V1036h200.4L892.8,984.1L892.8,984.1z M647.7,785.4h-98.4l-73.4,170l-78.7-170h-96.6v236.2l-102-236.2h-89.5
	L1.8,1035.9h64.4l23.3-55.5h125.2l23.3,55.5h121.7V839.1l87.7,196.8h51.9L587,839.1v196.8h60.8L647.7,785.4L647.7,785.4L647.7,785.4
	z M1617.4,926.8l-41.2-98.4l-41.1,98.4H1617.4z M1098.6,887.4c-8.9,5.4-17.9,5.4-30.4,5.4h-73.4v-55.5h73.4c10.7,0,23.2,0,30.4,3.6
	c7.1,5.4,10.7,12.5,10.7,23.3S1105.7,883.9,1098.6,887.4z M110.9,926.8l41.2-98.4l41.2,98.4H110.9z M2134.5,0H0v901.7l73.4-166.4
	H229l21.5,41.2v-41.2H433l41.2,89.5l39.4-89.5H1095c26.8,0,50.1,5.4,68,19.7v-19.7h159.2V755c26.8-14.3,60.8-19.7,100.2-19.7h230.8
	l21.5,41.2v-41.2h170l25.1,41.2v-41.2h166.4V1086H1868l-32.2-53.7v53.7h-209.3l-23.3-57.2h-51.9L1528,1086h-109.1
	c-42.9,0-75.2-10.7-96.6-21.5v21.5h-259.4v-80.5c0-10.7-1.8-12.5-8.9-12.5h-8.9v93h-501v-44.7L526,1086H420.5l-17.9-42.9v42.9H200.4
	l-21.5-57.2H127l-23.3,57.2H0v1057.4h2148.8v-642.3c-23.3,10.7-69.8,16.1-102,16.1h-155.7v-21.5c-17.9,14.3-50.1,21.5-80.5,21.5
	h-490.2v-80.5c0-10.7-1.8-10.7-10.7-10.7h-8.9v91.2h-161v-94.8c-26.8,12.5-57.2,12.5-84.1,12.5h-17.9v82.3H840.9l-46.5-53.7
	l-51.9,53.7H425.8v-350.7h322.1l46.5,53.7l50.1-53.7H1061c25,0,66.2,3.6,84.1,21.5v-21.5h193.2c19.7,0,57.3,3.6,82.3,21.5v-21.5
	h291.6v21.5c16.1-14.3,46.5-21.5,73.4-21.5h162.8v21.5c17.9-12.5,42.9-21.5,75.2-21.5h125.2V0H2134.5z"/>
</svg>
