<?xml version="1.0" encoding="utf-8"?>
<!-- Generator: Adobe Illustrator 25.3.0, SVG Export Plug-In . SVG Version: 6.00 Build 0)  -->
<svg version="1.1" id="Capa_1" xmlns="http://www.w3.org/2000/svg" xmlns:xlink="http://www.w3.org/1999/xlink" x="0px" y="0px"
	 viewBox="0 0 85 30.1" style="enable-background:new 0 0 85 30.1;" xml:space="preserve">
<style type="text/css">
	.st0{fill:#312F2D;}
	.st1{fill:#EE7026;}
</style>
<g>
	<path class="st0" d="M35.2,7.2c-1.1,0-1.7,1-1.7,2c0,1,0.6,2,1.7,2c1.1,0,1.7-1,1.7-2C36.9,8.3,36.3,7.2,35.2,7.2z M35.2,7.6
		c0.9,0,1.3,0.9,1.3,1.7c0,0.8-0.4,1.6-1.3,1.6c-0.9,0-1.3-0.9-1.3-1.7C33.9,8.5,34.3,7.6,35.2,7.6L35.2,7.6z"/>
	<path class="st0" d="M32.5,10.5c-0.2,0.2-0.5,0.4-0.9,0.4c-0.9,0-1.4-0.8-1.4-1.7c0-0.8,0.5-1.6,1.4-1.6c0.3,0,0.6,0.1,0.9,0.3
		c0.1,0.1,0.2,0.1,0.3,0c0.1-0.1,0.1-0.3,0-0.3c-0.3-0.3-0.7-0.4-1.1-0.4c-1.2,0-1.8,1-1.8,2.1c0,1.1,0.7,2,1.8,2
		c0.4,0,0.8-0.2,1.1-0.4c0.1-0.1,0.1-0.2,0.1-0.3C32.8,10.5,32.6,10.4,32.5,10.5L32.5,10.5z"/>
	<path class="st0" d="M25.9,11.1c0,0.1,0.1,0.2,0.2,0.2c0.1,0,0.2-0.1,0.2-0.2v-3l2.2,3c0.1,0.1,0.2,0.2,0.3,0.2
		c0.1,0,0.2-0.1,0.2-0.2V7.6c0-0.1-0.1-0.2-0.2-0.2c-0.1,0-0.2,0.1-0.2,0.2v3l-2.1-3c-0.1-0.1-0.2-0.2-0.3-0.2
		c-0.1,0-0.2,0.1-0.2,0.2V11.1z"/>
	<path class="st0" d="M24.7,11.2c0,0.1,0.2,0.1,0.3,0.1c0.1,0,0.1-0.2,0.1-0.3l-1.2-3.4c-0.1-0.1-0.2-0.2-0.3-0.2
		c-0.2,0-0.3,0.1-0.3,0.2L22,11c0,0.1,0,0.2,0.1,0.3c0.1,0,0.3-0.1,0.3-0.2l0.2-0.6h1.8L24.7,11.2z M23.5,7.9l0.8,2.2h-1.6L23.5,7.9
		z"/>
	<path class="st0" d="M18.8,11c0,0.2,0.1,0.3,0.3,0.3h1c0.6,0,1.1-0.5,1.1-1.1c0-0.5-0.4-1-0.9-1c0.4-0.1,0.6-0.5,0.6-0.8
		c0-0.6-0.6-0.9-1.1-0.9H19c-0.2,0-0.2,0.1-0.2,0.3V11z M19.2,9V7.8h0.6c0.4,0,0.7,0.2,0.7,0.6c0,0.3-0.4,0.6-0.7,0.6H19.2z
		 M19.2,9.4h0.6c0.1,0,0.3,0,0.4,0.1c0.4,0.1,0.6,0.4,0.6,0.8c0,0.5-0.4,0.7-0.8,0.7h-0.8V9.4z"/>
	<path class="st0" d="M18.9,23.4c0,0.3,0.2,0.5,0.5,0.5c0.3,0,0.5-0.2,0.5-0.5v-4.1h4.6v4.1c0,0.3,0.2,0.5,0.5,0.5
		c0.3,0,0.5-0.2,0.5-0.5v-9.1c0-0.3-0.2-0.5-0.5-0.5c-0.3,0-0.5,0.2-0.5,0.5v4h-4.6v-4c0-0.3-0.2-0.5-0.5-0.5
		c-0.3,0-0.5,0.2-0.5,0.5V23.4z"/>
	<path class="st0" d="M30.6,26.2c0,0.3,0.1,0.5,0.5,0.5c0.3,0,0.5-0.2,0.5-0.5v-3.7c0.4,0.8,1.2,1.3,2.1,1.3c2.1,0,3-2,3-3.8
		c0-1.8-0.9-3.9-3-3.9c-0.9,0-1.8,0.7-2.1,1.5v-1c0-0.3-0.1-0.5-0.5-0.5c-0.3,0-0.5,0.2-0.5,0.5V26.2z M33.8,23
		c-1.5,0-2.1-1.6-2.1-2.9c0-1.3,0.6-2.9,2.1-2.9c1.5,0,1.9,1.8,1.9,3C35.8,21.3,35.3,23,33.8,23L33.8,23z"/>
	<path class="st0" d="M41.2,16.1c-2.1,0-3.1,2-3.1,3.9c0,1.9,1,3.9,3.1,3.9c2.1,0,3.1-1.9,3.1-3.8C44.3,18.2,43.3,16.1,41.2,16.1z
		 M41.2,17.1c1.5,0,2.1,1.8,2.1,3.1c0,1.3-0.6,2.8-2.1,2.8c-1.5,0-2.1-1.8-2.1-3C39.1,18.6,39.7,17.1,41.2,17.1z"/>
	<path class="st0" d="M52.4,16.1c-2.1,0-3.1,2.1-3.1,3.9c0,2,1.2,3.9,3.3,3.9c1,0,2-0.3,2.6-1.2c0.1-0.1,0.1-0.5,0-0.6
		c-0.2-0.2-0.6-0.1-0.9,0.1c-0.5,0.5-1,0.7-1.8,0.7c-1.2,0-2.3-1.2-2.3-2.4h4.4c0.7,0,0.7-0.5,0.7-1.1
		C55.4,17.6,54.3,16.1,52.4,16.1L52.4,16.1z M50.3,19.5c0-1.2,0.8-2.4,2.1-2.5c1.3,0,2,1.3,2,2.5H50.3z"/>
	<path class="st0" d="M60.2,17.2c0.5,0,1,0.1,1.4,0.3c0.2,0.1,0.3,0,0.4-0.1c0.3-0.4,0-0.7-0.3-0.8c-0.5-0.2-1-0.3-1.5-0.3
		c-2.1,0-3.4,1.8-3.4,3.7c0,2,1.3,3.8,3.4,3.8c0.6,0,1.2-0.2,1.7-0.5c0.3-0.2,0.5-0.6,0.1-0.9c-0.1,0-0.1-0.1-0.2-0.1
		c-0.1,0-0.1,0-0.2,0.1c-0.4,0.3-0.9,0.5-1.4,0.5c-1.5,0-2.5-1.4-2.5-2.8C57.8,18.7,58.7,17.3,60.2,17.2z"/>
	<path class="st0" d="M71.4,23.4c0,0.3,0.2,0.5,0.5,0.5c0.3,0,0.5-0.2,0.5-0.5v-3.8c0-1.3,1.3-1.8,2.1-2.1c0.3-0.1,0.4-0.4,0.3-0.7
		c-0.4-0.8-2,0.4-2.4,1.1v-0.9c0-0.3-0.1-0.5-0.5-0.5c-0.3,0-0.5,0.2-0.5,0.5V23.4z"/>
	<path class="st0" d="M76.2,23.4c0,0.3,0.2,0.5,0.5,0.5c0.3,0,0.5-0.2,0.5-0.5v-6.5c0-0.3-0.2-0.5-0.5-0.5c-0.3,0-0.5,0.2-0.5,0.5
		V23.4z M76,14.5c0,0.4,0.3,0.7,0.6,0.7c0.4,0,0.6-0.3,0.6-0.7c0-0.4-0.3-0.7-0.6-0.7C76.3,13.8,76,14.1,76,14.5z"/>
	<path class="st0" d="M81.9,16.1c-2.1,0-3.1,2-3.1,3.9c0,1.9,1,3.9,3.1,3.9c2.1,0,3.1-1.9,3.1-3.8C85,18.2,84,16.1,81.9,16.1z
		 M81.9,17.1c1.5,0,2.1,1.8,2.1,3.1c0,1.3-0.6,2.8-2.1,2.8c-1.5,0-2.1-1.8-2.1-3C79.8,18.6,80.4,17.1,81.9,17.1z"/>
	<path class="st1" d="M15.1,30.1H0v-6.2l6.4-3.7c0.5-0.3,0.8-0.5,1.1-0.5c0.3,0,0.6,0.2,1.1,0.5l6.4,3.7V30.1z"/>
	<path class="st1" d="M15.1,0H0v21.4l6.4-3.7c0.5-0.3,0.8-0.5,1.1-0.5c0.3,0,0.6,0.2,1.1,0.5l6.4,3.7V0z"/>
	<path class="st0" d="M66.2,16.1c-2.1,0-3.1,2-3.1,3.9c0,1.9,1,3.9,3.1,3.9c0.8,0,1.6-0.3,2.1-0.9v0.3c0,0.3,0.2,0.5,0.5,0.5
		c0.3,0,0.5-0.2,0.5-0.5v-6.5c0-0.3-0.2-0.5-0.5-0.5c-0.3,0-0.5,0.2-0.5,0.5v0.4C67.8,16.5,67.1,16.1,66.2,16.1L66.2,16.1z
		 M66.2,17.1c1.5,0,2.1,1.8,2.1,3.1c0,1.3-0.7,2.8-2.1,2.8c-1.5,0-2.1-1.8-2.1-3C64.1,18.6,64.7,17.1,66.2,17.1z"/>
	<path class="st0" d="M45.5,16.4c-0.3,0-0.5,0.2-0.5,0.5c0,0.3,0.2,0.5,0.5,0.5h0.8v6c0,0.3,0.2,0.5,0.5,0.5c0.3,0,0.5-0.2,0.5-0.5
		v-6h0.8c0.3,0,0.5-0.2,0.5-0.5c0-0.3-0.2-0.5-0.5-0.5h-0.8v-1.9c0-0.3-0.2-0.5-0.5-0.5c-0.3,0-0.5,0.2-0.5,0.5v1.9H45.5L45.5,16.4z
		"/>
	<path class="st0" d="M27.5,23.4c0,0.3,0.2,0.5,0.5,0.5c0.3,0,0.5-0.2,0.5-0.5v-6.5c0-0.3-0.2-0.5-0.5-0.5c-0.3,0-0.5,0.2-0.5,0.5
		V23.4z M27.3,14.5c0,0.4,0.3,0.7,0.6,0.7c0.4,0,0.6-0.3,0.6-0.7c0-0.4-0.3-0.7-0.6-0.7C27.6,13.8,27.3,14.1,27.3,14.5z"/>
</g>
</svg>
