<?xml version="1.0" encoding="utf-8"?>
<!-- Generator: Adobe Illustrator 25.3.0, SVG Export Plug-In . SVG Version: 6.00 Build 0)  -->
<svg version="1.1" id="Capa_1" xmlns="http://www.w3.org/2000/svg" xmlns:xlink="http://www.w3.org/1999/xlink" x="0px" y="0px"
	 viewBox="0 0 56.1 20.9" style="enable-background:new 0 0 56.1 20.9;" xml:space="preserve">
<style type="text/css">
	.st0{fill:#1B7293;}
</style>
<g>
	<path class="st0" d="M16.7,6.3l-0.4,0.7c0,0,0,0-0.1,0H4.6c0,0-0.1,0-0.1,0L4.2,6.3c0,0,0,0,0-0.1l6.2-3.3c0,0,0.1,0,0.1,0
		L16.7,6.3C16.8,6.2,16.8,6.2,16.7,6.3 M8.5,13.5V7.5h1.3v5.9h1.3V7.5h1.3v5.9h1.3V7.5h1.3v5.9h0.6v1.2c0,0,0,0,0,0H5.2c0,0,0,0,0,0
		v-1.2h0.6V7.5h1.3v5.9H8.5z M16.4,16.5C16.4,16.5,16.3,16.6,16.4,16.5l-11.8,0c0,0,0,0,0,0v-1.2c0,0,0,0,0,0h11.7c0,0,0,0,0,0V16.5
		z M10.5,0C4.7,0,0,4.7,0,10.5c0,5.8,4.7,10.5,10.5,10.5c5.8,0,10.5-4.7,10.5-10.5C20.9,4.7,16.2,0,10.5,0"/>
	<path class="st0" d="M10.5,4.4C10.5,4.4,10.5,4.4,10.5,4.4c-0.1,0-0.1,0-0.1,0l-3,1.5c0,0,0,0,0,0h6c0,0,0,0,0,0L10.5,4.4z"/>
</g>
<g>
	<g>
		<path class="st0" d="M24.9,8.3h1c0.6,0,1-0.1,1.2-0.3c0.3-0.2,0.4-0.5,0.4-0.9c0-0.4-0.1-0.7-0.4-0.9c-0.2-0.2-0.6-0.3-1.2-0.3h-1
			V8.3z M24.9,4.9h0.9c0.5,0,0.8-0.1,1.1-0.3c0.2-0.2,0.3-0.5,0.3-0.9c0-0.7-0.5-1.1-1.4-1.1h-0.9V4.9z M22.8,8.4
			c0.1,0,0.2,0,0.4-0.1c0.2,0,0.3,0,0.5,0V2.6c-0.2,0-0.3,0-0.5,0c-0.2,0-0.3,0-0.4-0.1V1.8h3.2c0.3,0,0.7,0,1,0.1
			c0.3,0.1,0.6,0.2,0.8,0.3c0.2,0.1,0.4,0.3,0.5,0.6c0.1,0.2,0.2,0.5,0.2,0.9c0,0.5-0.1,0.8-0.4,1.1c-0.2,0.3-0.6,0.5-1,0.6v0
			c0.2,0,0.4,0.1,0.6,0.2c0.2,0.1,0.4,0.2,0.5,0.4c0.2,0.1,0.3,0.3,0.4,0.5c0.1,0.2,0.1,0.4,0.1,0.7c0,0.4-0.1,0.7-0.2,1
			c-0.1,0.3-0.3,0.5-0.6,0.6C27.7,8.9,27.4,9,27,9.1c-0.3,0.1-0.7,0.1-1.2,0.1h-3.1V8.4z"/>
		<path class="st0" d="M31.2,8.4c0.3,0,0.5-0.1,0.7-0.2c0.2-0.1,0.4-0.3,0.5-0.4V6.7h-0.2c-0.5,0-0.9,0.1-1.2,0.2
			c-0.3,0.2-0.5,0.4-0.5,0.8c0,0.2,0.1,0.4,0.2,0.5C30.8,8.4,31,8.4,31.2,8.4 M30.9,9.3c-0.2,0-0.4,0-0.6-0.1
			C30,9.1,29.9,9,29.7,8.9c-0.1-0.1-0.3-0.3-0.3-0.5c-0.1-0.2-0.1-0.4-0.1-0.6c0-0.3,0.1-0.6,0.3-0.9c0.2-0.2,0.4-0.4,0.7-0.6
			c0.3-0.1,0.6-0.2,0.9-0.3C31.4,6,31.8,6,32.1,6h0.2V5.5c0-0.3-0.1-0.6-0.2-0.7c-0.1-0.1-0.4-0.2-0.7-0.2c-0.3,0-0.5,0.1-0.8,0.2
			C30.4,4.9,30.2,5,30,5.2l-0.5-0.7C29.7,4.2,30,4,30.3,3.9c0.3-0.1,0.7-0.2,1.2-0.2c0.7,0,1.2,0.1,1.5,0.4c0.3,0.3,0.5,0.8,0.5,1.5
			v2.3c0,0.1,0,0.2,0,0.3c0,0.1,0,0.2,0,0.3c0.2,0,0.3,0,0.4,0c0.1,0,0.2,0,0.3,0v0.8c-0.2,0-0.4,0-0.7,0c-0.3,0-0.7,0-1.1,0
			c0-0.1,0-0.2-0.1-0.3c0-0.1,0-0.3,0-0.4h0c-0.1,0.2-0.4,0.4-0.6,0.5C31.5,9.2,31.2,9.3,30.9,9.3"/>
		<path class="st0" d="M34.9,8.4c0.1,0,0.2,0,0.4-0.1c0.2,0,0.3,0,0.5,0V4.6c-0.2,0-0.3,0-0.5,0c-0.1,0-0.3,0-0.4,0V3.8
			c0.2,0,0.4,0,0.8-0.1c0.4,0,0.8,0,1.2,0l0,0.8h0c0.2-0.3,0.4-0.5,0.7-0.7c0.3-0.2,0.6-0.3,1-0.3c0.3,0,0.5,0,0.7,0.1
			c0.2,0.1,0.4,0.2,0.5,0.4c0.1,0.2,0.2,0.3,0.3,0.5c0.1,0.2,0.1,0.4,0.1,0.7v2.9c0.1,0,0.3,0,0.5,0c0.2,0,0.3,0,0.3,0.1v0.8h-2.8
			V8.4c0.1,0,0.2,0,0.3-0.1c0.1,0,0.3,0,0.5,0V5.6c0-0.3-0.1-0.5-0.2-0.7c-0.1-0.2-0.3-0.2-0.6-0.2c-0.3,0-0.5,0.1-0.7,0.3
			c-0.2,0.2-0.4,0.4-0.5,0.6v2.9c0.1,0,0.3,0,0.5,0c0.2,0,0.3,0,0.3,0.1v0.8h-2.8V8.4z"/>
		<path class="st0" d="M44.6,5.2c0-0.1,0-0.2,0-0.3c0-0.1,0-0.2,0-0.3c-0.2-0.1-0.4-0.1-0.7-0.1c-0.2,0-0.5,0-0.6,0.1
			c-0.2,0.1-0.3,0.2-0.5,0.4c-0.1,0.2-0.2,0.4-0.3,0.6c-0.1,0.2-0.1,0.5-0.1,0.8c0,0.3,0,0.5,0.1,0.7c0.1,0.2,0.2,0.4,0.3,0.6
			C43,8,43.1,8.1,43.3,8.2c0.2,0.1,0.4,0.2,0.7,0.2c0.2,0,0.3,0,0.4,0c0.1,0,0.3-0.1,0.4-0.1c0.1,0,0.2-0.1,0.3-0.1
			c0.1,0,0.1-0.1,0.2-0.1l0.4,0.8c-0.1,0-0.1,0.1-0.2,0.1C45.3,9,45.2,9.1,45,9.1c-0.2,0.1-0.3,0.1-0.5,0.1c-0.2,0-0.4,0.1-0.7,0.1
			c-0.4,0-0.8-0.1-1.1-0.2c-0.3-0.1-0.6-0.3-0.8-0.6c-0.2-0.2-0.4-0.5-0.5-0.9c-0.1-0.3-0.2-0.7-0.2-1.1c0-0.5,0.1-0.9,0.2-1.2
			C41.5,5,41.7,4.7,42,4.4c0.2-0.2,0.5-0.4,0.9-0.6c0.3-0.1,0.7-0.2,1.1-0.2c0.4,0,0.7,0,1,0.1c0.3,0.1,0.5,0.2,0.6,0.3v1.2H44.6z"
			/>
		<path class="st0" d="M48.6,8.4c0.2,0,0.4,0,0.6-0.1c0.2-0.1,0.3-0.2,0.4-0.4c0.1-0.2,0.2-0.4,0.2-0.6C50,7,50,6.8,50,6.5
			c0-0.3,0-0.5-0.1-0.8c-0.1-0.2-0.1-0.4-0.2-0.6c-0.1-0.2-0.3-0.3-0.4-0.4c-0.2-0.1-0.4-0.2-0.6-0.2c-0.2,0-0.4,0-0.6,0.1
			c-0.2,0.1-0.3,0.2-0.4,0.4c-0.1,0.2-0.2,0.4-0.2,0.6c0,0.2-0.1,0.5-0.1,0.8c0,0.3,0,0.5,0.1,0.8c0.1,0.2,0.1,0.4,0.2,0.6
			C47.7,8,47.8,8.2,48,8.3C48.2,8.4,48.4,8.4,48.6,8.4 M48.6,9.3c-0.5,0-0.9-0.1-1.2-0.2c-0.3-0.2-0.6-0.4-0.8-0.6
			c-0.2-0.3-0.4-0.6-0.5-0.9c-0.1-0.3-0.1-0.7-0.1-1c0-0.3,0-0.7,0.1-1c0.1-0.3,0.3-0.6,0.5-0.9c0.2-0.3,0.5-0.5,0.8-0.7
			c0.3-0.2,0.7-0.3,1.2-0.3c0.5,0,0.9,0.1,1.2,0.2c0.3,0.2,0.6,0.4,0.8,0.6c0.2,0.3,0.4,0.6,0.5,0.9c0.1,0.3,0.2,0.7,0.2,1
			c0,0.3-0.1,0.7-0.2,1c-0.1,0.3-0.3,0.7-0.5,0.9c-0.2,0.3-0.5,0.5-0.8,0.7C49.5,9.2,49.1,9.3,48.6,9.3"/>
	</g>
	<g>
		<path class="st0" d="M22.8,18.2c0.1,0,0.2,0,0.4-0.1c0.2,0,0.3,0,0.5,0v-5.7c-0.2,0-0.3,0-0.5,0c-0.2,0-0.3,0-0.4-0.1v-0.8h2.1
			L28,16c0.2,0.2,0.3,0.5,0.5,0.7c0.1,0.2,0.2,0.4,0.3,0.5h0c0-0.1,0-0.2,0-0.4c0-0.2,0-0.4,0-0.7v-3.6c-0.2,0-0.3,0-0.5,0
			c-0.2,0-0.3,0-0.4-0.1v-0.8h2.8v0.8c-0.1,0-0.2,0-0.4,0.1c-0.2,0-0.3,0-0.5,0V19h-1.1l-3.3-4.7c-0.1-0.1-0.2-0.2-0.2-0.3
			c-0.1-0.1-0.1-0.2-0.2-0.3c-0.1-0.1-0.1-0.2-0.2-0.3c0-0.1-0.1-0.1-0.1-0.2h0c0,0.1,0,0.2,0,0.4c0,0.2,0,0.4,0,0.5v3.9
			c0.1,0,0.3,0,0.5,0c0.2,0,0.3,0,0.4,0.1V19h-2.8V18.2z"/>
		<path class="st0" d="M32.7,18.3c0.3,0,0.5-0.1,0.7-0.2c0.2-0.1,0.4-0.3,0.5-0.4v-1.1h-0.2c-0.5,0-0.9,0.1-1.2,0.2
			c-0.3,0.2-0.5,0.4-0.5,0.8c0,0.2,0.1,0.4,0.2,0.5C32.4,18.2,32.5,18.3,32.7,18.3 M32.4,19.1c-0.2,0-0.4,0-0.6-0.1
			c-0.2-0.1-0.4-0.2-0.5-0.3c-0.1-0.1-0.3-0.3-0.3-0.5c-0.1-0.2-0.1-0.4-0.1-0.6c0-0.3,0.1-0.6,0.3-0.9c0.2-0.2,0.4-0.4,0.7-0.6
			c0.3-0.1,0.6-0.3,0.9-0.3c0.3-0.1,0.7-0.1,1-0.1h0.2v-0.5c0-0.3-0.1-0.6-0.2-0.7c-0.1-0.1-0.4-0.2-0.7-0.2c-0.3,0-0.5,0.1-0.8,0.2
			c-0.2,0.1-0.4,0.2-0.7,0.4L31,14.3c0.2-0.2,0.5-0.4,0.9-0.5c0.3-0.1,0.7-0.2,1.2-0.2c0.7,0,1.2,0.1,1.5,0.4
			c0.3,0.3,0.5,0.8,0.5,1.5v2.3c0,0.1,0,0.2,0,0.3c0,0.1,0,0.2,0,0.3c0.2,0,0.3,0,0.4,0c0.1,0,0.2,0,0.3,0V19c-0.2,0-0.4,0-0.7,0
			c-0.3,0-0.7,0-1.1,0c0-0.1,0-0.2-0.1-0.3c0-0.1,0-0.3,0-0.4h0c-0.1,0.2-0.4,0.4-0.6,0.5C33.1,19.1,32.7,19.1,32.4,19.1"/>
		<path class="st0" d="M39.5,15.1c0-0.1,0-0.2,0-0.3c0-0.1,0-0.2,0-0.3c-0.2-0.1-0.4-0.1-0.7-0.1c-0.2,0-0.5,0-0.6,0.1
			c-0.2,0.1-0.3,0.2-0.5,0.4c-0.1,0.2-0.2,0.4-0.3,0.6c-0.1,0.2-0.1,0.5-0.1,0.8c0,0.3,0,0.5,0.1,0.7c0.1,0.2,0.2,0.4,0.3,0.6
			c0.1,0.2,0.3,0.3,0.5,0.4c0.2,0.1,0.4,0.2,0.7,0.2c0.2,0,0.3,0,0.4,0c0.1,0,0.3-0.1,0.4-0.1c0.1,0,0.2-0.1,0.3-0.1
			c0.1,0,0.1-0.1,0.2-0.1l0.4,0.8c-0.1,0-0.1,0.1-0.2,0.1c-0.1,0.1-0.2,0.1-0.4,0.2c-0.2,0.1-0.3,0.1-0.5,0.1
			c-0.2,0-0.4,0.1-0.7,0.1c-0.4,0-0.8-0.1-1.1-0.2c-0.3-0.1-0.6-0.3-0.8-0.6c-0.2-0.2-0.4-0.5-0.5-0.9c-0.1-0.3-0.2-0.7-0.2-1.1
			c0-0.5,0.1-0.9,0.2-1.2c0.1-0.4,0.3-0.7,0.6-0.9c0.2-0.2,0.5-0.4,0.9-0.6c0.3-0.1,0.7-0.2,1.1-0.2c0.4,0,0.7,0,1,0.1
			c0.3,0.1,0.5,0.2,0.6,0.3v1.2H39.5z"/>
		<path class="st0" d="M42.6,12.9c-0.2,0-0.4-0.1-0.5-0.2c-0.1-0.1-0.2-0.3-0.2-0.5s0.1-0.3,0.2-0.5c0.1-0.1,0.3-0.2,0.5-0.2
			c0.2,0,0.4,0.1,0.5,0.2c0.1,0.1,0.2,0.3,0.2,0.5s-0.1,0.3-0.2,0.5C42.9,12.8,42.8,12.9,42.6,12.9 M41.1,18.2c0.1,0,0.2,0,0.4-0.1
			c0.2,0,0.3,0,0.5,0v-3.7c-0.2,0-0.3,0-0.5,0c-0.1,0-0.3,0-0.4,0v-0.8c0.2,0,0.4,0,0.8-0.1c0.4,0,0.8,0,1.2,0l0,0.9v3.7
			c0.1,0,0.3,0,0.5,0c0.2,0,0.3,0,0.4,0.1V19h-2.8V18.2z"/>
		<path class="st0" d="M47.3,11.6h1.6l-1.4,1.3h-1L47.3,11.6z M47,18.3c0.2,0,0.5,0,0.6-0.1c0.2-0.1,0.3-0.2,0.4-0.4
			c0.1-0.2,0.2-0.4,0.2-0.6c0.1-0.2,0.1-0.5,0.1-0.8s0-0.5-0.1-0.8c-0.1-0.2-0.1-0.4-0.2-0.6c-0.1-0.2-0.3-0.3-0.4-0.4
			c-0.2-0.1-0.4-0.2-0.6-0.2c-0.2,0-0.4,0-0.6,0.1c-0.2,0.1-0.3,0.2-0.4,0.4c-0.1,0.2-0.2,0.4-0.2,0.6c0,0.2-0.1,0.5-0.1,0.8
			c0,0.3,0,0.5,0.1,0.8c0.1,0.2,0.1,0.4,0.2,0.6c0.1,0.2,0.2,0.3,0.4,0.4C46.5,18.2,46.7,18.3,47,18.3 M46.9,19.1
			c-0.5,0-0.9-0.1-1.2-0.2c-0.3-0.2-0.6-0.4-0.8-0.6c-0.2-0.3-0.4-0.6-0.5-0.9c-0.1-0.3-0.1-0.7-0.1-1c0-0.3,0.1-0.7,0.2-1
			c0.1-0.3,0.3-0.6,0.5-0.9c0.2-0.3,0.5-0.5,0.8-0.7c0.3-0.2,0.7-0.3,1.2-0.3c0.5,0,0.9,0.1,1.2,0.2c0.3,0.2,0.6,0.4,0.8,0.6
			c0.2,0.3,0.4,0.6,0.5,0.9c0.1,0.3,0.2,0.7,0.2,1c0,0.3-0.1,0.7-0.2,1c-0.1,0.3-0.3,0.7-0.5,0.9c-0.2,0.3-0.5,0.5-0.8,0.7
			C47.8,19.1,47.4,19.1,46.9,19.1"/>
		<path class="st0" d="M50,18.2c0.1,0,0.2,0,0.4-0.1c0.2,0,0.3,0,0.5,0v-3.7c-0.2,0-0.3,0-0.5,0c-0.1,0-0.3,0-0.4,0v-0.8
			c0.2,0,0.4,0,0.8-0.1c0.4,0,0.8,0,1.2,0l0,0.8h0c0.2-0.3,0.4-0.5,0.7-0.7c0.3-0.2,0.6-0.3,1-0.3c0.3,0,0.5,0,0.7,0.1
			c0.2,0.1,0.4,0.2,0.5,0.4c0.1,0.2,0.2,0.3,0.3,0.5c0.1,0.2,0.1,0.4,0.1,0.7v2.9c0.1,0,0.3,0,0.5,0c0.2,0,0.3,0,0.3,0.1V19h-2.8
			v-0.8c0.1,0,0.2,0,0.3-0.1c0.1,0,0.3,0,0.5,0v-2.7c0-0.3-0.1-0.5-0.2-0.7c-0.1-0.2-0.3-0.2-0.6-0.2c-0.3,0-0.5,0.1-0.7,0.3
			c-0.2,0.2-0.4,0.4-0.5,0.6v2.9c0.1,0,0.3,0,0.5,0c0.2,0,0.3,0,0.3,0.1V19H50V18.2z"/>
	</g>
</g>
</svg>
