<?xml version="1.0" encoding="utf-8"?>
<!-- Generator: Adobe Illustrator 25.3.0, SVG Export Plug-In . SVG Version: 6.00 Build 0)  -->
<svg version="1.1" id="Capa_1" xmlns="http://www.w3.org/2000/svg" xmlns:xlink="http://www.w3.org/1999/xlink" x="0px" y="0px"
	 viewBox="0 0 205.3 80.6" style="enable-background:new 0 0 205.3 80.6;" xml:space="preserve">
<style type="text/css">
	.st0{fill:#08703A;}
	.st1{fill:#6DAE2E;}
	.st2{fill:#6BAF32;}
</style>
<g>
	<g>
		<path class="st0" d="M86.1,52.4c-2,0-4.4-0.2-5.6-0.4c-1.2-0.2-1.7-0.7-1.7-2.2V29.3c0-1.5,0.4-2,1.6-2.2c1-0.2,3.5-0.4,5.5-0.4
			c5.8,0,9.7,1.7,9.7,7.1v0.6c0,2.2-0.9,4.1-2.6,5c1.6,0.9,2.7,2.7,2.7,5v0.5C95.7,50.8,91.4,52.4,86.1,52.4z M90.5,34.1
			c0-1.9-1.1-2.7-4.2-2.7c-0.5,0-1.9,0-2.3,0v5.8h3.4c2.4,0,3.1-1.2,3.1-2.7V34.1z M90.7,44.3c0-1.6-0.8-3-3.2-3H84v6.3
			c0.5,0,2.1,0,2.5,0c3.1,0,4.2-1.1,4.2-3V44.3z"/>
		<path class="st0" d="M111.9,52.1h-3.4c-0.3,0-0.6-0.3-0.6-0.7v-0.5c-1.2,0.9-2.4,1.5-4.3,1.5c-2.7,0-5.2-1.4-5.2-5.8v-0.3
			c0-3.9,2.3-5.7,7.5-5.7h1.7v-1.2c0-1.9-0.9-2.3-2.3-2.3c-2,0-4.1,0.1-5.1,0.2H100c-0.3,0-0.6-0.2-0.6-0.6v-2.7
			c0-0.4,0.2-0.6,0.6-0.7c1.1-0.3,3.3-0.7,5.3-0.7c4.4,0,7.2,2,7.2,6.9v12C112.5,51.8,112.2,52.1,111.9,52.1z M107.6,43.8h-1.7
			c-2.1,0-2.7,0.8-2.7,2.5v0.3c0,1.4,0.6,1.7,1.9,1.7c0.9,0,1.8-0.3,2.5-0.7V43.8z"/>
		<path class="st0" d="M129.8,52.1h-3.7c-0.3,0-0.6-0.3-0.6-0.7V40.1c0-2.4-0.4-3.1-2.3-3.1c-0.9,0-1.8,0.5-2.9,1.1v13.3
			c0,0.4-0.3,0.7-0.6,0.7H116c-0.3,0-0.6-0.3-0.6-0.7v-18c0-0.4,0.3-0.7,0.6-0.7h3.4c0.3,0,0.6,0.3,0.6,0.7v0.8c1.7-1.3,3-1.8,5-1.8
			c4.4,0,5.4,3.4,5.4,7.7v11.2C130.4,51.7,130.1,52.1,129.8,52.1z"/>
		<path class="st0" d="M145,51.9c-0.9,0.2-2.2,0.5-4.1,0.5c-4.3,0-7.1-3-7.1-8.5V41c0-5.5,2.8-8.5,7.1-8.5c1.8,0,3.2,0.3,4.1,0.5
			c0.5,0.1,0.6,0.3,0.6,0.8v3c0,0.3-0.3,0.6-0.6,0.6c0,0,0,0-0.1,0c-1.1-0.1-2-0.2-3.7-0.2c-1.4,0-2.5,0.9-2.5,3.9v2.8
			c0,3,1.1,3.9,2.5,3.9c1.7,0,2.6-0.1,3.7-0.2c0,0,0.1,0,0.1,0c0.3,0,0.6,0.2,0.6,0.6v3C145.6,51.6,145.5,51.7,145,51.9z"/>
		<path class="st0" d="M155.5,52.4c-5,0-7.7-3.4-7.7-8.8v-2.4c0-5.4,2.7-8.8,7.7-8.8c5,0,7.6,3.4,7.6,8.8v2.4
			C163.2,49,160.5,52.4,155.5,52.4z M158.3,41.3c0-2.7-0.9-4.1-2.7-4.1c-1.8,0-2.8,1.4-2.8,4.1v2.4c0,2.7,1,4.2,2.8,4.2
			c1.8,0,2.7-1.4,2.7-4.2V41.3z"/>
		<path class="st0" d="M86.5,72.2c-0.7,0-1.6-0.1-2.4-0.1V80c0,0.4-0.3,0.6-0.6,0.6h-3.8c-0.3,0-0.6-0.3-0.6-0.6V58.3
			c0-1.1,0.4-1.4,1.3-1.5c1.5-0.3,3.9-0.4,6-0.4c4.4,0,8.8,1.7,8.8,7.8v0.3C95.3,70.5,90.9,72.2,86.5,72.2z M90.3,64.1
			c0-2.3-1.3-3.2-3.8-3.2c-0.4,0-2,0.1-2.4,0.1v6.6c0.3,0,2.1,0.1,2.4,0.1c2.6,0,3.8-1.1,3.8-3.3V64.1z"/>
		<path class="st0" d="M106.8,66.2h-0.2c-1.4,0-2.7,0.5-3.8,1.1v12.6c0,0.4-0.3,0.7-0.6,0.7h-3.6c-0.3,0-0.6-0.3-0.6-0.7V62.8
			c0-0.4,0.3-0.6,0.6-0.6h3.5c0.3,0,0.6,0.3,0.6,0.6v0.6c1.1-1,2.6-1.5,4-1.5c0.3,0,0.6,0.3,0.6,0.6v3.1
			C107.3,65.9,107.1,66.2,106.8,66.2z"/>
		<path class="st0" d="M116,80.9c-4.8,0-7.4-3.3-7.4-8.4v-2.3c0-5.1,2.6-8.4,7.4-8.4c4.8,0,7.4,3.3,7.4,8.4v2.3
			C123.4,77.6,120.8,80.9,116,80.9z M118.7,70.3c0-2.6-0.9-3.9-2.6-3.9c-1.7,0-2.7,1.3-2.7,3.9v2.3c0,2.6,0.9,4,2.7,4
			c1.7,0,2.6-1.4,2.6-4V70.3z"/>
		<path class="st0" d="M140.7,62.9L137,77.5c-0.7,2.9-2.5,3.4-4.3,3.4c-1.7,0-3.5-0.5-4.2-3.4l-3.7-14.6c0-0.1,0-0.1,0-0.2
			c0-0.3,0.2-0.5,0.5-0.5h3.9c0.3,0,0.5,0.3,0.6,0.7l2.5,12.6c0.1,0.5,0.2,0.7,0.4,0.7c0.2,0,0.4-0.2,0.5-0.7l2.5-12.6
			c0.1-0.4,0.3-0.7,0.6-0.7h3.9c0.3,0,0.5,0.2,0.5,0.5C140.7,62.7,140.7,62.8,140.7,62.9z"/>
		<path class="st0" d="M147.6,60h-3.8c-0.3,0-0.6-0.3-0.6-0.6v-3c0-0.4,0.3-0.6,0.6-0.6h3.8c0.3,0,0.6,0.3,0.6,0.6v3
			C148.1,59.7,147.9,60,147.6,60z M147.4,80.6h-3.6c-0.3,0-0.6-0.3-0.6-0.6V62.8c0-0.4,0.3-0.6,0.6-0.6h3.6c0.3,0,0.6,0.3,0.6,0.6
			V80C148,80.3,147.8,80.6,147.4,80.6z"/>
		<path class="st0" d="M165.6,80.6H162c-0.3,0-0.6-0.3-0.6-0.7V69.2c0-2.3-0.4-3-2.2-3c-0.9,0-1.8,0.5-2.8,1v12.7
			c0,0.4-0.3,0.7-0.6,0.7h-3.6c-0.3,0-0.6-0.3-0.6-0.7V62.8c0-0.4,0.3-0.6,0.6-0.6h3.3c0.3,0,0.6,0.3,0.6,0.6v0.8
			c1.6-1.3,2.9-1.7,4.8-1.7c4.3,0,5.2,3.3,5.2,7.3v10.7C166.2,80.3,165.9,80.6,165.6,80.6z"/>
		<path class="st0" d="M180.1,80.4c-0.8,0.2-2.1,0.5-3.9,0.5c-4.2,0-6.9-2.9-6.9-8.2V70c0-5.3,2.7-8.2,6.9-8.2
			c1.8,0,3.1,0.3,3.9,0.5c0.4,0.1,0.6,0.3,0.6,0.7V66c0,0.3-0.3,0.5-0.6,0.5c0,0,0,0-0.1,0c-1.1-0.1-1.9-0.2-3.6-0.2
			c-1.3,0-2.4,0.9-2.4,3.7v2.7c0,2.9,1.1,3.7,2.4,3.7c1.7,0,2.5-0.1,3.6-0.2c0,0,0.1,0,0.1,0c0.3,0,0.6,0.2,0.6,0.5v2.9
			C180.7,80.2,180.5,80.3,180.1,80.4z"/>
		<path class="st0" d="M188.1,60h-3.8c-0.3,0-0.6-0.3-0.6-0.6v-3c0-0.4,0.3-0.6,0.6-0.6h3.8c0.3,0,0.6,0.3,0.6,0.6v3
			C188.7,59.7,188.4,60,188.1,60z M188,80.6h-3.6c-0.3,0-0.6-0.3-0.6-0.6V62.8c0-0.4,0.3-0.6,0.6-0.6h3.6c0.3,0,0.6,0.3,0.6,0.6V80
			C188.6,80.3,188.3,80.6,188,80.6z"/>
		<path class="st0" d="M204.7,80.6h-3.3c-0.3,0-0.6-0.3-0.6-0.6v-0.5c-1.1,0.9-2.3,1.4-4.1,1.4c-2.6,0-5-1.4-5-5.5v-0.3
			c0-3.8,2.2-5.4,7.2-5.4h1.6v-1.2c0-1.8-0.8-2.2-2.2-2.2c-1.9,0-4,0.1-4.9,0.2h-0.1c-0.3,0-0.5-0.2-0.5-0.6v-2.6
			c0-0.4,0.2-0.6,0.6-0.7c1.1-0.3,3.2-0.7,5.1-0.7c4.2,0,6.9,1.9,6.9,6.6V80C205.3,80.3,205,80.6,204.7,80.6z M200.6,72.7h-1.7
			c-2.1,0-2.6,0.8-2.6,2.4v0.3c0,1.4,0.6,1.6,1.9,1.6c0.9,0,1.7-0.3,2.4-0.7V72.7z"/>
	</g>
	<g>
		<path class="st1" d="M38.1,0H4.3C4.3,0,0-0.5,0,4.2v48.2c0,0,0.2,27,26.4,28.5h37c0,0,5.4,0,5.4-5.4V31.3c0,0-6.5,16.3-22.6,16.3
			l-8.1,0.1L38,63.5h-4.5c0,0-13.8-0.8-13.8-11.8l-0.1-43h10C29.6,8.7,34.2,5.4,38.1,0z"/>
		<path class="st2" d="M38.3,16v16.5h8.1c0,0,5.7-0.1,5.7-7.6c0-7.5-6.9-8.9-6.9-8.9H38.3z"/>
	</g>
</g>
</svg>
