<?xml version="1.0" encoding="utf-8"?>
<!-- Generator: Adobe Illustrator 25.3.0, SVG Export Plug-In . SVG Version: 6.00 Build 0)  -->
<svg version="1.1" id="Layer_1" xmlns="http://www.w3.org/2000/svg" xmlns:xlink="http://www.w3.org/1999/xlink" x="0px" y="0px"
	 viewBox="0 0 376.6 117.8" style="enable-background:new 0 0 376.6 117.8;" xml:space="preserve">
<style type="text/css">
	.st0{fill-rule:evenodd;clip-rule:evenodd;fill:#18418A;}
	.st1{fill:#18418A;}
	.st2{fill:#FFFFFF;}
</style>
<g>
	<g>
		<path class="st0" d="M178.2,29.1h3.4c6.5,0,12.1,1.5,12.1,8.1c0,7.8-6.7,8-12.1,8h-3.4V29.1 M178.2,11.3h3.4c5.9,0,9.7,1,9.7,6.5
			c0,5.7-3.9,7.3-9.7,7.3h-3.4V11.3z M170.2,49.3h11.4c6.8,0,20.1,0,20.1-11.5c0-7.4-6-9.9-11.2-10.8c3.9-1,8.8-3.7,8.8-9.7
			c0-8.9-9.4-10-17.7-10h-11.4C170.2,7.3,170.2,49.3,170.2,49.3z"/>
		<path class="st0" d="M225.5,38.1c0,5.4-3.9,7.7-6.6,7.7c-2.6,0-4.5-1.9-4.5-4.8c0-5.9,7.9-6.5,11.2-6.7L225.5,38.1 M225.6,49.3
			h7.9V28.7c0-6.2-1-12.1-13.1-12.1c-11.7,0-13.5,5-13.9,9.8h8.5c0.3-3.8,0.6-7,5.5-7c5.2,0,5.2,5.8,5.2,9.3v2.8
			c-4.9,0.2-20.8,0.7-20.8,10.5c0,4.4,4.3,8,10.2,8s9.2-3.3,10.5-5.2L225.6,49.3z"/>
		<path class="st0" d="M315.5,33.5c0-5.8,0.9-13.9,7.9-13.9c7.1,0,8,8.1,8,13.9s-0.9,13.9-8,13.9C316.3,47.4,315.5,39.3,315.5,33.5
			 M323.3,50.2c11,0,16.6-5.9,16.6-16.7s-5.6-16.7-16.6-16.7c-11.1,0-16.6,5.9-16.6,16.7C306.8,44.3,312.3,50.2,323.3,50.2"/>
		<path class="st0" d="M282.6,29.9c0-5.8,2.4-10.3,7.1-10.3c5.1,0,5.1,4.5,5.1,8.3h8.5c0-6.6-3-11.1-13.3-11.1
			c-11,0-16.3,5.9-16.3,15.4c0,11.9,7.1,17.5,19.2,18c4.2,0.2,7.8-1.2,11-2.4l-1.1-2.3c-2.3,0.7-4.2,1.2-6.5,1.2
			C286.5,46.6,282.6,37.7,282.6,29.9"/>
		<path class="st0" d="M238.8,49.3h7.8V36.1c0-3.9,2.1-14.4,9.8-14.4c3.9,0,4.6,3.6,4.6,7.6v19.9h7.8V26c0-4.6-2.8-9.3-9.2-9.3
			c-8.1,0-11.6,6-12.8,8.3h-0.2v-7.6h-7.8L238.8,49.3"/>
	</g>
	<g>
		<polygon class="st0" points="334,72.3 337.2,63.1 345.5,63.1 340,72.3 		"/>
		<path class="st0" d="M374.3,78.5v4.9c-0.9-0.5-3.7-1.8-6.4-2.1c-0.7-0.1-1.4-0.1-2.1-0.2c-0.3,0-0.5,0-0.8,0
			c-2.5,0-5.2,0.9-5.2,3.3c0,5.8,16.8,6.3,16.8,16.5c0,6.8-6.2,9.6-13.9,9.6c-4.7,0-7.9-0.9-9.8-1.4v-5.3c1.1,0.7,4.2,1.9,6.8,2.2
			c0.7,0.1,1.4,0.2,2.1,0.2c0.4,0,0.9,0.1,1.3,0.1c4.5,0,6.3-2,6.3-4c0-5.6-16.6-6.7-16.6-15.9c0-4.8,3.7-9.2,12.9-9.2
			C369.6,77.2,373,78.2,374.3,78.5"/>
		<path class="st0" d="M197.4,109.7h7.8V95.1c0-8.6,4.5-10.8,12-11v-7c-6.7,0.5-9.4,4.5-11.8,8.8h-0.2v-8.1h-7.8V109.7"/>
		<path class="st0" d="M316.6,105.7c-2.3,0.7-4.2,1.2-6.5,1.2c-9.8,0-13.8-8.9-13.8-16.7c0-5.8,2.4-10.3,7.1-10.3
			c5.1,0,5.1,4.5,5.1,8.3h8.5c0-6.6-3-11.1-13.3-11.1c-11,0-16.3,5.9-16.3,15.4c0,11.9,7.1,17.5,19.2,18c4.2,0.2,7.8-1.2,11-2.4
			L316.6,105.7"/>
		<polygon class="st0" points="170.2,109.8 178.2,109.8 178.2,90.1 194.1,90.1 194.1,86.1 178.2,86.1 178.2,72.1 195,72.1 195,68.1 
			170.2,68.1 		"/>
		<path class="st0" d="M349,105.8c-2.4,0.9-4.5,1.1-6.9,1.1c-11.3,0-14.6-10.5-14.6-16.8H350c0-6.2-2.3-13.1-14.4-13.1
			c-11.8,0-16,6.4-16,15.3c0,12.9,8.4,18.1,18.8,18.1c4.7,0,8.5-1,11.8-2.3L349,105.8 M327.8,87c0.2-1.8,1.3-7.2,7.5-7.2
			c5.9,0,6.9,4.7,6.9,7.2H327.8z"/>
		<path class="st0" d="M238.6,98.5c0,5.4-3.9,7.7-6.6,7.7c-2.6,0-4.5-1.9-4.5-4.8c0-5.9,7.9-6.5,11.2-6.7v3.8 M238.7,109.7h7.9V89.1
			c0-6.2-1-12.1-13.1-12.1c-11.7,0-13.5,5-13.9,9.8h8.5c0.3-3.8,0.6-7,5.4-7c5.2,0,5.2,5.8,5.2,9.2v2.8c-4.9,0.2-20.8,0.7-20.8,10.5
			c0,4.4,4.3,8,10.1,8c5.9,0,9.2-3.3,10.5-5.2h0.2L238.7,109.7L238.7,109.7z"/>
		<path class="st0" d="M253,109.6h7.8V96.4c0-3.9,2.2-14.4,9.8-14.4c3.9,0,4.6,3.6,4.6,7.6v19.9h7.8V86.3c0-4.6-2.8-9.3-9.2-9.3
			c-8.1,0-11.6,6-12.8,8.3h-0.2v-7.6H253L253,109.6"/>
	</g>
</g>
<g>
	<rect class="st1" width="159.8" height="117.8"/>
	<g>
		<path class="st2" d="M91.3,77.6L76.8,33.3h7.8c3,0,3.9,0.7,5.4,5.8L98.4,67l10-33.6h7L102,77.6H91.3z"/>
		<path class="st2" d="M64.6,77.6c16.3,0,21.2-19,6.1-26.9l2.2-3.1c4.5-6.7,1.3-14.1-7.6-14.1H46v44.3h18.5V77.6z M56.4,39.2H62
			c2.7,0,5.1,2.2,5.1,4.9c0,0.9-0.1,1.8-1.2,3.3l-3.7,5.5c4,0.9,6.6,3.9,6.6,9.3c0,6.7-4,9.4-9.3,9.4h-3.1V39.2z"/>
		<path class="st2" d="M27.2,77.6c16.3,0,21.2-19,6.1-26.9l2.1-3.1c4.5-6.7,1.3-14.1-7.6-14.1H8.7v44.3h18.5V77.6z M19,39.2h5.7
			c2.7,0,5.1,2.2,5.1,4.9c0,0.9-0.1,1.8-1.2,3.3l-3.7,5.5c4,0.9,6.6,3.9,6.6,9.3c0,6.7-4,9.4-9.3,9.4H19C19,71.6,19,39.2,19,39.2z"
			/>
		<path class="st2" d="M117.2,77.6L120,68h16.1l3,9.6h12l-13.5-39.8c-1.2-3.6-1.8-4.5-5.4-4.5h-8.5l-13.6,44.3H117.2z M128.1,41.4
			l6.1,20.2h-12.1L128.1,41.4z"/>
	</g>
</g>
</svg>
