<?xml version="1.0" encoding="utf-8"?>
<!-- Generator: Adobe Illustrator 25.3.0, SVG Export Plug-In . SVG Version: 6.00 Build 0)  -->
<svg version="1.1" id="Capa_1" xmlns="http://www.w3.org/2000/svg" xmlns:xlink="http://www.w3.org/1999/xlink" x="0px" y="0px"
	 viewBox="0 0 85 28" style="enable-background:new 0 0 85 28;" xml:space="preserve">
<style type="text/css">
	.st0{fill-rule:evenodd;clip-rule:evenodd;fill:#C32018;}
	.st1{fill:#262020;}
</style>
<g>
	<path class="st0" d="M71.6,19.4v2.1h7v-2.1v-2.1v-2.2h-2.1h-2.1v-2.1h2.1h2.1v-2.1V8.6V6.7V6.5h-7v2.2h4.8v2.2h-4.3V11v1.9v2.1v2.2
		h2.2h2.1v2.1H71.6z M59.2,14c0-6.5,5.3-11.8,11.8-11.8c6.5,0,11.8,5.3,11.8,11.8c0,6.5-5.3,11.8-11.8,11.8
		C64.5,25.8,59.2,20.5,59.2,14 M57.1,14c0-7.7,6.3-14,14-14c7.7,0,14,6.3,14,14c0,7.7-6.3,14-14,14C63.3,28,57.1,21.7,57.1,14
		 M70.5,8.6V6.4h-7v2.2v2.1v2.2h2.1h2.1V15h-2.1h-2.1v2.2v2.2v1.9v0.3h7v-2.1h-4.8v-2.2H70v-0.3V15v-2.2v-2.2h-2.2h-2.1V8.6H70.5z"
		/>
	<path class="st1" d="M23.6,15.1L23.6,15.1L23.6,15.1l5.2,0c0.5,0,1.2,0.1,1.7,0.4c0.5,0.3,0.8,0.8,0.8,1.5c0,0.5-0.1,0.9-0.4,1.2
		c-0.5,0.5-1.4,0.5-2,0.5h0h-5.2h0v0L23.6,15.1z M23.6,12.3V9.2v0h0h4.7c0.8,0,2.2,0,2.2,1.7c0,0.6-0.3,1-0.8,1.3
		c-0.5,0.2-1.1,0.2-1.5,0.2L23.6,12.3L23.6,12.3L23.6,12.3z M29,21.5c1.8,0,3.2-0.4,4.1-1.3c0.9-0.9,1.1-2,1.1-2.8
		c0-1.8-0.7-3-2.2-3.6l-0.1,0l0.1,0c0.7-0.3,1.5-1,1.5-3.1c0-1.1-0.4-2.2-1.2-2.9c-0.9-0.8-2.1-1.2-3.6-1.2l-7.9,0v15L29,21.5z"/>
	<rect y="6.4" class="st1" width="3" height="15"/>
	<path class="st1" d="M5.4,13.8c0,1.5,0.2,2.7,0.8,3.7c0.4,0.8,1,1.6,1.9,2.2c1.3,1.1,3.2,1.6,5.6,1.6h4.1v-2.8h-3.9
		c-2.2,0-3.7-0.5-4.6-1.6c-0.7-0.7-1-1.8-1-3c0-1.3,0.4-2.4,1.1-3.1c0.9-0.9,2.5-1.4,4.5-1.4h3.9V6.5h-4c-1.3,0-2.5,0.1-3.4,0.4
		C9.4,7.2,8.6,7.6,8,8.2C7,9,5.4,10.8,5.4,13.8"/>
	<path class="st1" d="M36,13.8c0,1.5,0.3,2.7,0.8,3.8c0.4,0.9,1.1,1.7,1.9,2.4c1.3,1,3,1.5,5.6,1.5h4.3v-2.8h-4.1
		c-2.2,0-3.7-0.6-4.6-1.7c-0.7-0.8-1-1.8-1-3.1c0-1.4,0.4-2.5,1.1-3.2c0.9-1,2.5-1.4,4.5-1.4h4.1V6.4h-4.2c-1.3,0-2.5,0.1-3.4,0.4
		c-1,0.3-1.8,0.7-2.4,1.2C37.7,8.7,36,10.6,36,13.8"/>
</g>
</svg>
