<?xml version="1.0" encoding="utf-8"?>
<!-- Generator: Adobe Illustrator 25.3.0, SVG Export Plug-In . SVG Version: 6.00 Build 0)  -->
<svg version="1.1" id="Layer_1" xmlns="http://www.w3.org/2000/svg" xmlns:xlink="http://www.w3.org/1999/xlink" x="0px" y="0px"
	 viewBox="0 0 217.4 73.4" style="enable-background:new 0 0 217.4 73.4;" xml:space="preserve">
<style type="text/css">
	.st0{fill:#01558B;}
	.st1{fill:#FFFFFF;}
</style>
<g>
	<path class="st0" d="M0,73.4l203,0c8,0,14.4-6.5,14.4-14.4V0H0V73.4z"/>
	<path class="st1" d="M115.2,40.8l-4.5-14.1l-4.4,14.1H115.2z M115,22l10.1,29.7h-6.3l-2-6.2h-11.8l-2.1,6.2h-6.3l9.3-27.5
		c0.5-1.4,1.7-2.3,3.2-2.3H115z"/>
	<path class="st1" d="M143.7,44.2c0,2.2-1.2,2.9-3.9,2.9h-6.2V39h6.7c2.4,0,3.4,1,3.4,3V44.2z M133.6,26.7h5.8
		c2.2,0,3.2,0.8,3.2,2.4v2.6c0,1.7-0.9,2.8-3.2,2.8h-5.8V26.7z M145.1,36.3c2.4-1,3.5-2.4,3.5-4.8v-3.1c0-4-2.4-6.3-8.5-6.3h-12.6
		v29.7H141c5.8,0,8.7-2.6,8.7-6.8v-3.2C149.7,38.9,148,36.9,145.1,36.3"/>
	<path class="st1" d="M85.5,26.2h8.7v-2.2c0-1.6-1.3-2.9-2.9-2.9h-5.7c-7.8,0.1-11.1,3.2-11.1,8.6v13.4c0,5.4,3.3,8.5,11.1,8.6v0
		h8.3v-2.2c0-1.6-1.3-2.9-2.9-2.9h-5.4v0c-3.8-0.1-5-1.4-5-4.5V30.7C80.5,27.7,81.7,26.3,85.5,26.2"/>
	<path class="st1" d="M187.8,46.8V26.7v-5.1h-2.7c-1.8,0-3.3,1.5-3.3,3.3v1.8v25.1H201v-5H187.8z"/>
	<path class="st1" d="M169.8,40.8l-4.5-14.1L161,40.8H169.8z M169.6,22l10.1,29.7h-6.3l-2-6.2h-11.8l-2.1,6.2h-6.3l9-26.6
		c0.6-1.9,2.4-3.1,4.3-3.1H169.6z"/>
	<path class="st1" d="M41.6,12.9l22.1,21.7c1.2,1.2,1.2,3.2,0,4.4l-22,21.7l0-12.1L52,38.3c0.9-0.8,0.9-2.2,0-3.1L41.6,24.9V12.9z"
		/>
	<path class="st1" d="M37.5,12.9L15.5,34.5c-1.2,1.2-1.2,3.2,0,4.4l22,21.7l0-12.1L27.2,38.3c-0.9-0.8-0.9-2.2,0-3.1l10.4-10.3V12.9
		z"/>
</g>
</svg>
