<?xml version="1.0" encoding="utf-8"?>
<!-- Generator: Adobe Illustrator 25.3.0, SVG Export Plug-In . SVG Version: 6.00 Build 0)  -->
<svg version="1.1" id="Capa_1" xmlns="http://www.w3.org/2000/svg" xmlns:xlink="http://www.w3.org/1999/xlink" x="0px" y="0px"
	 viewBox="0 0 2285.5 2498.4" style="enable-background:new 0 0 2285.5 2498.4;" xml:space="preserve">
<style type="text/css">
	.st0{fill:#FF9E16;}
	.st1{fill:url(#SVGID_1_);}
	.st2{fill:#98252B;}
	.st3{fill:#FF5000;}
</style>
<g>
	<path class="st0" d="M0,2048.2v-462.3c390.4-0.5,706.7-311.5,707.2-695.2V247.5h470.2v643.2C1177.4,1528.9,649.2,2048.2,0,2048.2z"
		/>
	
		<linearGradient id="SVGID_1_" gradientUnits="userSpaceOnUse" x1="709.5251" y1="2239.7085" x2="710.341" y2="2239.5679" gradientTransform="matrix(1177.4049 0 0 -1800.6758 -835247.4375 4034021.25)">
		<stop  offset="0" style="stop-color:#FF9E16;stop-opacity:0"/>
		<stop  offset="4.000000e-02" style="stop-color:#FD9516;stop-opacity:7.000000e-02"/>
		<stop  offset="0.17" style="stop-color:#F67717;stop-opacity:0.31"/>
		<stop  offset="0.3" style="stop-color:#F05E18;stop-opacity:0.52"/>
		<stop  offset="0.43" style="stop-color:#EB4819;stop-opacity:0.7"/>
		<stop  offset="0.57" style="stop-color:#E73819;stop-opacity:0.83"/>
		<stop  offset="0.69" style="stop-color:#E42C1A;stop-opacity:0.92"/>
		<stop  offset="0.82" style="stop-color:#E3251A;stop-opacity:0.98"/>
		<stop  offset="0.93" style="stop-color:#E2231A"/>
	</linearGradient>
	<path class="st1" d="M0,2048.2v-462.3c390.4-0.5,706.7-311.5,707.2-695.2V247.5h470.2v643.2C1177.4,1528.9,649.2,2048.2,0,2048.2z"
		/>
	<path class="st2" d="M2050.7,2498c-86.1,0.1-165.4-46.9-206.6-122.6L721,350.7c-40-73.5-37.6-162.7,6.2-233.9
		C771.2,45.4,850,2.9,933.8,5.2c83.8,2.2,160,48.8,200.1,122.4l1123.1,2025.1c39.5,72.4,37.8,160.3-4.5,231.1
		c-42.4,71-119,114.5-201.6,114.5L2050.7,2498z"/>
	<path class="st3" d="M2060.4,2498.4c-124.4,0-225.1-104.7-225.1-233.9V239c0-129.2,100.8-233.9,225.1-233.9
		c124.3,0,225.1,104.7,225.1,233.9v2025.5C2285.5,2393.7,2184.7,2498.4,2060.4,2498.4z"/>
</g>
</svg>
