<?xml version="1.0" encoding="utf-8"?>
<!-- Generator: Adobe Illustrator 25.3.0, SVG Export Plug-In . SVG Version: 6.00 Build 0)  -->
<svg version="1.1" id="Capa_1" xmlns="http://www.w3.org/2000/svg" xmlns:xlink="http://www.w3.org/1999/xlink" x="0px" y="0px"
	 viewBox="0 0 579 524.4" style="enable-background:new 0 0 579 524.4;" xml:space="preserve">
<style type="text/css">
	.st0{fill:#20263F;}
	.st1{fill:#FFE678;}
</style>
<g>
	<polygon class="st0" points="537.8,97 293.8,0 41.2,97 	"/>
	<rect x="34.8" y="109.2" class="st0" width="509.5" height="33.2"/>
	<g>
		<rect x="86.7" y="165.9" class="st0" width="45" height="231.2"/>
		<rect x="178" y="165.9" class="st0" width="44.9" height="231.2"/>
		<rect x="267.6" y="165.9" class="st0" width="45" height="231.2"/>
		<rect x="356.1" y="165.9" class="st0" width="45" height="231.2"/>
		<rect x="447.4" y="165.9" class="st0" width="45" height="231.2"/>
	</g>
	<rect x="38.5" y="422.8" class="st0" width="502" height="33.2"/>
	<rect y="472" class="st0" width="579" height="52.4"/>
	<path class="st1" d="M366.6,80.8H212.4c-2.5,0-4.5-2-4.5-4.5V53.1c0-2.5,2-4.5,4.5-4.5h154.2c2.5,0,4.5,2,4.5,4.5v23.2
		C371.1,78.8,369.1,80.8,366.6,80.8z"/>
</g>
</svg>
