<?xml version="1.0" encoding="utf-8"?>
<!-- Generator: Adobe Illustrator 25.3.0, SVG Export Plug-In . SVG Version: 6.00 Build 0)  -->
<svg version="1.1" id="Capa_1" xmlns="http://www.w3.org/2000/svg" xmlns:xlink="http://www.w3.org/1999/xlink" x="0px" y="0px"
	 viewBox="0 0 2104 682.6" style="enable-background:new 0 0 2104 682.6;" xml:space="preserve">
<style type="text/css">
	.st0{fill:#2566AF;}
	.st1{fill:#E6A540;}
</style>
<g>
	<path class="st0" d="M912.1,671.2H740.4L847.7,11.8h171.7L912.1,671.2z M596,11.8L432.3,465.3l-19.4-97.7l0,0L355.2,71.2
		c0,0-7-59.4-81.4-59.4H3.2L0,22.9c0,0,82.7,17.2,179.6,75.4l149.2,572.9h178.9L780.8,11.8H596L596,11.8z M1946.3,671.2H2104
		L1966.5,11.8h-138c-63.7,0-79.3,49.1-79.3,49.1l-256,610.3h179l35.8-97.9h218.2L1946.3,671.2L1946.3,671.2z M1757.4,437.9
		l90.2-246.8l50.7,246.8H1757.4z M1506.6,170.4l24.5-141.6c0,0-75.6-28.8-154.4-28.8c-85.2,0-287.5,37.2-287.5,218.3
		c0,170.4,237.5,172.5,237.5,262s-213,73.4-283.3,17l-25.5,148.1c0,0,76.7,37.2,193.8,37.2c117.2,0,293.9-60.7,293.9-225.8
		c0-171.5-239.6-187.4-239.6-262C1266,120.3,1433.2,129.9,1506.6,170.4L1506.6,170.4z"/>
</g>
<path class="st1" d="M413,367.7L355.2,71.1c0,0-7-59.4-81.4-59.4H3.2L0,22.9c0,0,130.1,27,254.8,127.9
	C374.1,247.4,413,367.7,413,367.7z"/>
</svg>
